<?xml version="1.0" standalone="no"?>
<!DOCTYPE svg PUBLIC "-//W3C//DTD SVG 1.1//EN" "http://www.w3.org/Graphics/SVG/1.1/DTD/svg11.dtd" >
<svg xmlns="http://www.w3.org/2000/svg">
<metadata></metadata>
<defs>
<font id="caslon_graphique_dregular" horiz-adv-x="1228" >
<font-face units-per-em="2048" ascent="1542" descent="-506" />
<missing-glyph horiz-adv-x="512" />
<glyph unicode="&#xfb01;" horiz-adv-x="1333" d="M14 0v20q47 2 73.5 8t46.5 19t28.5 42t12 67.5t3.5 105.5v666h-119l234 297q102 131 168 193.5t128.5 87t153.5 24.5q175 0 287.5 -73.5t112.5 -188.5q0 -69 -47.5 -113.5t-120.5 -44.5q-54 0 -97.5 24.5t-66.5 67.5q-12 24 -17 52.5t-8 99.5q-5 88 -25 117.5t-75 29.5 q-75 0 -117 -55q-28 -43 -28 -148v-274h428q111 0 200 27v-789q0 -56 1.5 -90t8 -63t15.5 -43.5t27.5 -25.5t41 -14.5t58.5 -5.5v-20h-594v20q34 13 50.5 36.5t23 69.5t6.5 136v391q0 158 -37 216.5t-137 58.5h-92v-666q0 -143 18 -178q24 -50 86 -64v-20h-631z" />
<glyph unicode="&#xfb02;" horiz-adv-x="1318" d="M14 0v20q47 2 73.5 8t46.5 19t28.5 42t12 67.5t3.5 105.5v666h-119l234 297q146 187 227.5 246t192.5 59q48 0 74 -4t128 -29q27 -8 56 -8q44 0 198 53v-1280q0 -56 1.5 -90t8 -63t15.5 -43.5t27.5 -25.5t41 -14.5t58.5 -5.5v-20h-582v20q43 22 55.5 65.5t12.5 176.5v842 q-6 236 -12 285q-18 112 -115 112q-73 0 -106 -48.5t-33 -154.5v-274h225l-55 -96h-170v-666q0 -143 18 -178q24 -52 86 -64v-20h-631z" />
<glyph unicode="&#xfb03;" horiz-adv-x="2592" d="M2 0v20q47 2 73.5 8t46.5 19t28.5 42t12 67.5t3.5 105.5v666h-119l234 297q148 187 227.5 245t187.5 58q152 0 257.5 -75.5t105.5 -182.5q0 -67 -45.5 -110.5t-114.5 -43.5q-49 0 -90.5 23t-63.5 63q-19 36 -24 150q-2 77 -19 110q-23 37 -59 37q-23 0 -46 -15t-38 -40 q-31 -47 -31 -148v-272h226l-56 -96h-170v-666q0 -58 2 -93t9.5 -64.5t18.5 -43.5t34 -24.5t50.5 -13t72.5 -3.5v-20h-713zM907 0v20q47 2 73.5 8t46.5 19t28.5 42t12 67.5t3.5 105.5v666h-119l234 297q148 187 228 245t188 58q152 0 257 -75t105 -183q0 -67 -45.5 -110.5 t-114.5 -43.5q-49 0 -90 23t-63 63q-20 38 -25 150q-2 79 -18 110q-23 37 -60 37q-23 0 -46 -15t-38 -40q-30 -46 -30 -148v-272h225l-55 -96h-170v-666q0 -58 2 -92.5t9.5 -64.5t18 -44t33.5 -24.5t50.5 -13t72.5 -3.5v-20h-713zM1862 893q135 32 295 78.5t243 79.5v-789 q0 -156 25 -197t125 -45v-20h-662v20q43 2 67 8t42.5 19t26 42t11 67.5t3.5 105.5v336q0 93 -8.5 137.5t-32.5 77.5q-22 30 -51.5 43t-81.5 16zM1976 1335q0 89 64 153t153 64q93 0 156.5 -64t63.5 -157q0 -88 -64.5 -151.5t-153.5 -63.5q-91 0 -155 64t-64 155z" />
<glyph unicode="&#xfb04;" horiz-adv-x="2592" d="M2 0v20q47 2 73.5 8t46.5 19t28.5 42t12 67.5t3.5 105.5v666h-119l234 297q148 187 227.5 245t187.5 58q152 0 257.5 -75.5t105.5 -182.5q0 -67 -45.5 -110.5t-114.5 -43.5q-49 0 -90.5 23t-63.5 63q-19 36 -24 150q-2 77 -19 110q-23 37 -59 37q-23 0 -46 -15t-38 -40 q-31 -47 -31 -148v-272h226l-56 -96h-170v-666q0 -58 2 -93t9.5 -64.5t18.5 -43.5t34 -24.5t50.5 -13t72.5 -3.5v-20h-713zM907 0v20q47 2 73.5 8t46.5 19t28.5 42t12 67.5t3.5 105.5v666h-119l234 297q148 187 228 245t188 58q193 0 305 -121q328 74 491 135v-1280 q0 -67 3.5 -105.5t11 -67.5t26 -42t43 -19t68.5 -8v-20h-664v20q43 2 67 8t42.5 19t26 42t11 67.5t3.5 105.5v840q0 126 -20 178.5t-79 81.5q25 -54 25 -90q0 -69 -44.5 -112.5t-115.5 -43.5q-49 0 -89.5 23.5t-61.5 62.5q-20 38 -25 150q-5 84 -18 110q-23 37 -60 37 q-23 0 -46 -15t-38 -40q-30 -46 -30 -148v-272h225l-55 -96h-170v-666q0 -58 2 -92.5t9.5 -64.5t18 -44t33.5 -24.5t50.5 -13t72.5 -3.5v-20h-713z" />
<glyph horiz-adv-x="2048" />
<glyph horiz-adv-x="2048" />
<glyph unicode="&#xd;" horiz-adv-x="2048" />
<glyph unicode=" "  horiz-adv-x="512" />
<glyph unicode="&#x09;" horiz-adv-x="512" />
<glyph unicode="&#xa0;" horiz-adv-x="512" />
<glyph unicode="!" horiz-adv-x="593" d="M96 1102q0 89 55 169t175 163q58 -43 85 -67t54 -54q88 -102 88 -199q0 -52 -19 -114.5t-65 -168.5q-76 -173 -96.5 -235.5t-26.5 -142.5h-20q-3 79 -24.5 145.5t-76.5 167.5q-80 154 -104.5 218t-24.5 118zM127 172q0 82 57.5 139.5t139.5 57.5q84 0 141 -58t57 -143 q0 -79 -58 -137t-138 -58q-83 0 -141 58t-58 141z" />
<glyph unicode="&#x22;" horiz-adv-x="1017" d="M41 1366h393l-182 -549h-29zM584 1366h393l-182 -549h-29z" />
<glyph unicode="#" horiz-adv-x="1146" d="M0 526l8 41h389l41 232h-389l6 41h389l93 526h41l-93 -526h232l94 526h41l-94 -526h389l-6 -41h-389l-41 -232h389l-8 -41h-390l-92 -526h-41l93 526h-232l-92 -526h-41l92 526h-389zM438 567h232l41 232h-232z" />
<glyph unicode="$" d="M57 295q0 66 45 110t113 44q103 0 160 -101q20 -33 26.5 -58t18.5 -112q6 -76 54 -124.5t122 -53.5v508l-104 33q-200 66 -295 165.5t-95 241.5q0 123 72.5 226t200.5 165q94 48 221 54v272h27v-272q172 0 280 -39q104 -35 163.5 -95.5t59.5 -130.5q0 -61 -41.5 -102 t-103.5 -41q-69 0 -127 49q-26 22 -41.5 48.5t-30.5 76.5q-34 119 -63 157t-96 48v-457l190 -61q183 -60 269.5 -156t86.5 -239q0 -119 -64 -224t-179 -172q-66 -40 -135 -59t-168 -25v-272h-27v272q-238 3 -388.5 93.5t-150.5 230.5zM389 1163q0 -89 49 -146.5t158 -98.5 v448q-207 -9 -207 -203zM623 0q89 3 147 31q51 29 82 83t31 117q0 94 -62.5 158.5t-197.5 108.5v-498z" />
<glyph unicode="%" horiz-adv-x="1058" d="M41 1090q0 126 80.5 214.5t197.5 88.5q103 0 187 -78q76 -33 168 -33q82 0 149 30t101 81l65 102h29l-940 -1556h-27l836 1392q-58 -46 -103.5 -65t-95.5 -19q-75 0 -158 41q68 -88 68 -201q0 -126 -81.5 -214.5t-197.5 -88.5q-117 0 -197.5 89t-80.5 217zM225 1090 q0 -123 25.5 -201t66.5 -78q39 0 65 77.5t26 196.5q0 126 -26 203.5t-67 77.5q-40 0 -65 -77t-25 -199zM457 276q0 128 80.5 217t197.5 89t198 -89.5t81 -218.5q0 -125 -82 -213t-197 -88q-117 0 -197.5 88.5t-80.5 214.5zM641 279q0 -123 25.5 -201t66.5 -78 q39 0 64.5 77.5t25.5 196.5q0 126 -25.5 203.5t-66.5 77.5q-40 0 -65 -77t-25 -199z" />
<glyph unicode="&#x26;" horiz-adv-x="1783" d="M47 479q0 178 107.5 329t308.5 257q9 80 32 128.5t74 94.5q118 105 283 105q138 0 227.5 -81.5t89.5 -207.5q0 -156 -159 -359l168 -200q97 283 112 317q41 101 94.5 148t128.5 47q78 0 129.5 -56t51.5 -143q0 -74 -40 -124t-100 -50q-33 0 -61.5 15.5t-65.5 54.5 q-39 39 -69 39q-35 0 -66 -51.5t-94 -215.5q106 -135 222.5 -216t205.5 -81q77 0 125 64l18 -6q-82 -154 -176 -234t-194 -80q-115 0 -214.5 55.5t-221.5 186.5q-68 -97 -132 -147q-59 -44 -135.5 -69.5t-152.5 -25.5q-207 0 -351.5 147t-144.5 359zM352 748 q0 -89 30 -182.5t83 -172.5q58 -87 144.5 -134.5t183.5 -47.5q75 0 145 33q-98 82 -309 381q-83 121 -121.5 216.5t-46.5 196.5q-109 -103 -109 -290zM764 1243q0 -78 68 -217.5t165 -261.5q66 114 66 262q0 154 -50.5 247t-135.5 93q-50 0 -81.5 -34.5t-31.5 -88.5z" />
<glyph unicode="'" horiz-adv-x="491" d="M41 1366h410l-185 -549h-43z" />
<glyph unicode="(" horiz-adv-x="667" d="M41 442v351q0 216 57 357t185 239q78 60 156 84t214 28v-20q-78 -3 -125.5 -30.5t-81.5 -88.5q-38 -70 -52.5 -166t-14.5 -281v-596q0 -183 14.5 -278.5t52.5 -167.5q34 -61 81.5 -88.5t125.5 -30.5v-20q-136 4 -214 28t-156 84q-128 98 -185 239t-57 357z" />
<glyph unicode=")" horiz-adv-x="667" d="M14 -246q78 3 125.5 30.5t81.5 88.5q38 72 53 168t15 278v596q0 184 -15 280t-53 167q-34 61 -81.5 88.5t-125.5 30.5v20q136 -4 214.5 -28t156.5 -84q128 -98 185 -239t57 -357v-351q0 -216 -57 -357t-185 -239q-78 -60 -156.5 -84t-214.5 -28v20z" />
<glyph unicode="*" horiz-adv-x="733" d="M12 1114q0 37 28.5 64.5t65.5 27.5t72 -25.5t111 -109.5q7 -7 28 -31q-163 -28 -194 -28q-49 0 -80 28.5t-31 73.5zM109 809q0 44 36 74t154 84q2 1 7 3t13.5 6t16.5 7q-12 -118 -29 -182q-9 -41 -36.5 -65.5t-65.5 -24.5q-41 0 -68.5 28.5t-27.5 69.5zM270 1294 q0 40 29.5 69.5t69.5 29.5q37 0 65.5 -28t28.5 -65q0 -50 -55 -147q-12 -25 -41 -76q-38 69 -43 80q-2 3 -10 18.5t-13 22.5q-31 58 -31 96zM397 983q138 -63 181 -96.5t43 -79.5q0 -43 -27.5 -70.5t-69.5 -27.5q-52 0 -78.5 43t-37.5 145zM416 1040q90 97 131 129.5 t76 32.5q40 0 69 -28t29 -66q0 -46 -31 -72t-86 -26q-33 0 -104 14q-36 8 -84 16z" />
<glyph unicode="+" horiz-adv-x="1132" d="M20 662v40h527v527h41v-527h524v-40h-524v-525h-41v525h-527z" />
<glyph unicode="," horiz-adv-x="475" d="M41 150q0 80 57.5 136t139.5 56q85 0 140.5 -63t55.5 -160q0 -106 -69 -223.5t-183 -206.5l-14 14q41 53 57.5 90t16.5 78q0 39 -15 61.5t-55 44.5q-77 41 -104 77t-27 96z" />
<glyph unicode="-" horiz-adv-x="536" d="M0 440v158h537v-158h-537z" />
<glyph unicode="." horiz-adv-x="477" d="M41 172q0 82 57.5 139.5t139.5 57.5q84 0 141 -58t57 -143q0 -79 -58 -137t-138 -58q-83 0 -141 58t-58 141z" />
<glyph unicode="/" horiz-adv-x="860" d="M-14 0l831 1366h55l-831 -1366h-55z" />
<glyph unicode="0" d="M43 684q0 282 137 463q83 112 201.5 179t232.5 67q115 0 234 -67.5t201 -178.5q137 -182 137 -473q0 -268 -137 -455q-79 -110 -200 -178t-235 -68t-234 68.5t-200 177.5q-137 186 -137 465zM467 682q0 -350 36 -516t111 -166q148 0 148 674q0 359 -35.5 525.5 t-112.5 166.5q-75 0 -111 -167t-36 -517z" />
<glyph unicode="1" d="M213 1065v22q144 52 313.5 143t288.5 179v-1059q0 -141 7 -190t30 -82q22 -29 54 -41t100 -17v-20h-773v20q69 5 101.5 17t54.5 41q24 32 30.5 76.5t6.5 181.5v518q0 53 -2 83t-10.5 57t-20.5 38.5t-38.5 20t-57.5 10.5t-84 2z" />
<glyph unicode="2" d="M104 0q7 120 29 185.5t74.5 126t175.5 163.5q146 124 210 225.5t64 206.5q0 107 -67 174.5t-174 67.5q-84 0 -141 -35.5t-95 -112.5h-20q57 199 173.5 295.5t301.5 96.5q193 0 319.5 -112t126.5 -282q0 -201 -188 -333q-56 -40 -103.5 -63.5t-173.5 -72.5 q-173 -64 -250.5 -112t-150.5 -135h502q134 0 203.5 10.5t109.5 38.5t72 86h20q-62 -188 -80.5 -252.5t-54.5 -216.5h-20q-3 27 -21 37.5t-65 11.5h-72q-33 2 -68 2h-637z" />
<glyph unicode="3" d="M88 274q0 87 50.5 141t131.5 54q70 0 118 -48.5t48 -119.5q0 -28 -14 -96q-10 -52 -10 -86q0 -52 39.5 -86.5t99.5 -34.5q98 0 156.5 91t58.5 243q0 173 -79.5 293t-213.5 151v21q70 17 103 32t59 41q31 32 49 78t18 92q0 82 -56.5 135.5t-143.5 53.5q-68 0 -113 -26 t-86 -89l-20 6q43 129 141.5 201t232.5 72q161 0 265 -83t104 -212q0 -71 -28.5 -122t-92.5 -95q215 -122 215 -365q0 -148 -79.5 -273t-217 -197.5t-299.5 -72.5q-195 0 -315.5 83t-120.5 218z" />
<glyph unicode="4" d="M-31 530q420 434 740 863h268v-846h82q69 0 100.5 11t71.5 48l18 -8q-67 -103 -102 -209h-170v-137q0 -131 46.5 -179.5t176.5 -52.5v-20h-833v20q75 3 106 8.5t57 20.5q40 25 57 70.5t17 132.5v137h-561q-14 37 -74 141zM115 547h489v557q-273 -337 -489 -557z" />
<glyph unicode="5" d="M82 272q0 78 48 126t126 48q75 0 121.5 -50t46.5 -132l-4 -74q-2 -14 -2 -40q0 -78 36.5 -114t116.5 -36q114 0 183 87t69 232q0 163 -112 247.5t-326 84.5q-121 0 -238 -35q32 82 73.5 340.5t45.5 409.5h621q77 0 115.5 14t72.5 54l21 -7q-70 -117 -115 -311h-690 l-25 -166q96 17 203 17q272 0 432 -97q104 -65 164.5 -174t60.5 -235q0 -189 -145 -328q-85 -83 -187.5 -121.5t-240.5 -38.5q-217 0 -344 80.5t-127 218.5z" />
<glyph unicode="6" d="M63 569q0 183 90.5 347.5t256.5 283.5q228 167 495 244l15 -17q-282 -142 -412 -548q79 24 147 24q218 0 368.5 -130.5t150.5 -319.5q0 -132 -71.5 -242.5t-195 -174t-270.5 -63.5q-121 0 -227.5 45.5t-182.5 124.5t-120 189.5t-44 236.5zM440 440q0 -232 46 -336 t147 -104q103 0 149.5 104.5t46.5 333.5q0 233 -45.5 336t-148.5 103t-149 -103.5t-46 -333.5z" />
<glyph unicode="7" d="M121 963q38 92 78 233t55 238h20q14 -37 49.5 -52.5t108.5 -15.5h690q0 -85 -28.5 -164.5t-110.5 -224.5q-185 -330 -260.5 -530.5t-75.5 -360.5q0 -30 6 -86h-448q9 170 65.5 299.5t180.5 263t358 316.5q72 59 113.5 99.5t95.5 104.5h-475q-143 0 -188 -3.5t-95 -20.5 q-37 -14 -63.5 -35t-55.5 -61h-20z" />
<glyph unicode="8" d="M78 362q0 106 60.5 188.5t189.5 154.5q-92 58 -134 125.5t-42 156.5q0 179 139.5 292.5t359.5 113.5q172 0 295 -88.5t123 -214.5q0 -52 -23 -105.5t-63 -93.5q-32 -32 -119 -86q103 -56 162 -109q127 -118 127 -278q0 -120 -74 -222.5t-200.5 -162.5t-274.5 -60 q-226 0 -376 111t-150 278zM281 414q0 -77 23.5 -156t64.5 -137q38 -57 101 -89t136 -32q110 0 176 67t66 177q0 101 -65.5 175t-225.5 156q-145 75 -207 113q-69 -126 -69 -274zM467 1157q0 -117 106 -194q35 -26 61 -41t148 -76q4 -2 11 -6t20.5 -11.5t24.5 -13.5 q47 68 67.5 127t20.5 129q0 132 -69.5 213.5t-180.5 81.5q-92 0 -150.5 -58.5t-58.5 -150.5z" />
<glyph unicode="9" d="M39 881q0 139 75.5 257t204.5 186.5t281 68.5q112 0 223.5 -43t188.5 -115q82 -76 126 -184.5t44 -233.5q0 -360 -340 -624q-217 -169 -457 -240l-12 16q169 109 258.5 238t136.5 332q-54 -47 -108.5 -66.5t-133.5 -19.5q-194 0 -336 112q-151 118 -151 316zM395 932 q0 -227 49 -336t150 -109q201 0 201 420q0 459 -195 459q-205 0 -205 -434z" />
<glyph unicode=":" horiz-adv-x="532" d="M96 172q0 82 57.5 139.5t139.5 57.5q85 0 142 -58t57 -143q0 -79 -58.5 -137t-138.5 -58q-83 0 -141 58t-58 141zM96 797q0 82 57.5 139t139.5 57q85 0 142 -57.5t57 -142.5q0 -79 -58.5 -137t-138.5 -58q-83 0 -141 58t-58 141z" />
<glyph unicode=";" horiz-adv-x="532" d="M94 797q0 82 57.5 139t139.5 57q85 0 141.5 -57.5t56.5 -142.5q0 -79 -58 -137t-138 -58q-83 0 -141 58t-58 141zM98 147q0 80 57.5 136.5t139.5 56.5q86 0 142.5 -63t56.5 -160q0 -105 -69.5 -222t-184.5 -206l-15 14q42 53 58 89.5t16 78.5q0 39 -15 61.5t-55 44.5 q-75 40 -96 64q-35 47 -35 106z" />
<glyph unicode="&#x3c;" horiz-adv-x="1024" d="M74 772v21l874 536v-166l-424 -260l424 -293v-444z" />
<glyph unicode="=" horiz-adv-x="1132" d="M20 526v41h1092v-41h-1092zM20 799v41h1092v-41h-1092z" />
<glyph unicode="&#x3e;" horiz-adv-x="1024" d="M74 166v168l424 258l-424 295v442l874 -606v-21z" />
<glyph unicode="?" horiz-adv-x="1169" d="M68 999q0 106 70 196.5t190 144t260 53.5q92 0 190 -23t178 -63q85 -43 132 -109t47 -143q0 -141 -140 -244q-37 -27 -71.5 -45.5t-145.5 -71.5q-111 -56 -161 -101t-50 -91q0 -51 54 -62q-19 -22 -35 -22q-19 0 -32 22.5t-13 53.5q0 50 57 147q125 207 125 414 q0 130 -66.5 214.5t-167.5 84.5q-62 0 -98.5 -29t-36.5 -78t49 -139q33 -59 33 -117q0 -80 -53 -132t-135 -52q-78 0 -129 54.5t-51 137.5zM403 172q0 82 57.5 139.5t139.5 57.5q85 0 142 -58t57 -143q0 -79 -58.5 -137t-138.5 -58q-83 0 -141 58t-58 141z" />
<glyph unicode="@" horiz-adv-x="1697" d="M47 614q0 165 68 310t186 248.5t283.5 163t353.5 59.5q318 0 514.5 -159t196.5 -417q0 -212 -140.5 -359t-341.5 -147q-195 0 -213 179q-53 -100 -108.5 -139.5t-145.5 -39.5q-125 0 -189.5 66.5t-64.5 193.5q0 100 32 190t86.5 155.5t130 104t159.5 38.5q73 0 111 -32.5 t57 -110.5l25 122h217l-93 -483q-14 -78 -14 -108q0 -95 66 -95q52 0 94 39q66 66 112 200t46 265q0 221 -146.5 358.5t-382.5 137.5q-158 0 -287.5 -63t-222.5 -183q-77 -103 -120.5 -240.5t-43.5 -281.5q0 -258 136 -406q70 -78 173.5 -121t217.5 -43q96 0 217 29v-45 q-135 -27 -238 -27q-155 0 -297.5 51t-244.5 142q-189 174 -189 448zM672 494q0 -72 18.5 -105t59.5 -33q33 0 68.5 23.5t62.5 64.5q41 60 71.5 182.5t30.5 225.5q0 89 -21 129.5t-67 40.5q-59 0 -110.5 -71.5t-82 -193.5t-30.5 -263z" />
<glyph unicode="A" horiz-adv-x="1624" d="M-41 0v20q127 12 250 151t205 361l207 547q-34 64 -80 107q72 32 167.5 115.5t180.5 187.5q74 -199 106 -277l265 -637q59 -138 94 -216.5t71.5 -148.5t58.5 -100t53.5 -53.5t58 -29t69.5 -7.5v-20h-825v20q145 6 145 115q0 77 -86 281l-45 106h-414q-51 -138 -51 -248 q0 -114 54 -181t149 -73v-20h-633zM449 547h399l-211 508z" />
<glyph unicode="B" horiz-adv-x="1447" d="M14 0v20q69 6 101.5 18t52.5 40q23 33 30 82t7 190v666q0 141 -7 190t-30 82q-20 28 -52.5 40t-101.5 18v20h537q225 0 353 -16t216 -56q197 -86 197 -247q0 -83 -50 -146t-143 -98q-97 -36 -288 -45q149 -19 226 -36t136 -44q103 -47 157 -121.5t54 -169.5 q0 -180 -169 -283.5t-460 -103.5h-766zM608 242q0 -137 23.5 -177t105.5 -40q125 0 183.5 86t58.5 270q0 207 -72 285q-38 41 -89 57t-146 16h-64v-497zM608 764h54q92 0 136 15.5t72 56.5q54 80 54 217q0 163 -68 231q-30 32 -75 44.5t-124 12.5h-49v-577z" />
<glyph unicode="C" horiz-adv-x="1370" d="M47 688q0 145 57.5 275.5t156 224.5t235 149.5t288.5 55.5q123 0 277 -37q83 -19 110 -19q22 0 33 8.5t19 30.5h20l33 -545h-21q-66 210 -190 363q-138 172 -289 172q-148 0 -223.5 -175t-75.5 -515q0 -364 119 -545q40 -60 102 -95.5t129 -35.5q78 0 150 52.5t145 164.5 q99 146 152 348h20l-18 -585h-21q-6 43 -45 43q-27 0 -202 -35q-100 -17 -195 -17q-159 0 -301 56t-244 151t-161.5 228t-59.5 282z" />
<glyph unicode="D" horiz-adv-x="1558" d="M14 0v20q69 6 101.5 18t52.5 40q25 32 31 79t6 195v664q0 146 -6 193t-31 79q-20 28 -52.5 40t-101.5 18v20h713q380 0 590 -207q95 -92 144.5 -216t49.5 -267q0 -191 -91.5 -346t-252.5 -242.5t-360 -87.5h-793zM608 297q0 -103 5.5 -149t19.5 -70q13 -25 48 -39t81 -14 q172 0 245.5 152.5t73.5 508.5q0 198 -24 323.5t-78 211.5q-41 63 -116 91.5t-199 28.5h-56v-1044z" />
<glyph unicode="E" horiz-adv-x="1415" d="M14 0v20q69 6 101.5 18t52.5 40q25 32 31 79t6 193v664q0 148 -6 195t-31 79q-20 28 -52.5 40t-101.5 18v20h1207l84 -471h-21q-94 220 -250.5 333t-367.5 113h-58v-630q157 11 257 92.5t112 208.5h20v-631h-20q-35 145 -133 226t-236 81v-483q0 -104 25.5 -142t95.5 -38 q194 0 383 163q92 79 155 174t107 220h21l-92 -582h-1289z" />
<glyph unicode="F" horiz-adv-x="1282" d="M14 0v20q67 4 100.5 17t53.5 41q25 32 31 79t6 193v666q0 146 -6 193t-31 79q-20 28 -52.5 40t-101.5 18v20h1184l86 -510h-20q-42 114 -86 183t-111 132q-89 81 -193 125.5t-206 44.5h-60v-653q315 15 367 299h20v-625h-20q-27 128 -135 218q-104 86 -221 86h-11v-318 q0 -125 11.5 -180.5t44.5 -89.5q31 -33 70 -45t122 -13v-20h-842z" />
<glyph unicode="G" horiz-adv-x="1486" d="M47 676q0 148 63 288.5t175 241.5q205 187 508 187q127 0 319 -41q53 -11 72 -11q37 0 45 35h20l23 -532h-21q-69 247 -183 384.5t-249 137.5q-68 0 -126 -39.5t-95 -109.5q-121 -227 -121 -615q0 -316 84 -477q31 -60 88 -92.5t129 -32.5q100 0 140 61t40 215v146 q0 108 -33.5 150t-131.5 57v20h706v-20q-46 -3 -70 -13.5t-43 -35.5q-23 -31 -30.5 -73t-7.5 -142v-365h-21q-10 35 -27 50.5t-43 15.5q-20 0 -96 -23q-222 -70 -413 -70q-140 0 -269.5 56.5t-224 151.5t-151 225t-56.5 270z" />
<glyph unicode="H" horiz-adv-x="1658" d="M14 0v20q67 4 100.5 17t53.5 41q25 32 31 79t6 193v666q0 146 -6 193t-31 79q-20 28 -53.5 41t-100.5 17v20h744v-20q-65 -9 -95.5 -33.5t-42.5 -77.5t-12 -162v-340h443v340q0 109 -12 162t-42.5 77.5t-95.5 33.5v20h744v-20q-68 -5 -100 -17t-54 -41q-23 -33 -30 -82 t-7 -190v-666q0 -141 7 -190t30 -82q22 -29 54 -41t100 -17v-20h-744v20q65 9 95.5 33.5t42.5 77.5t12 162v416h-443v-416q0 -109 12 -162t42.5 -77.5t95.5 -33.5v-20h-744z" />
<glyph unicode="I" horiz-adv-x="813" d="M14 0v20q67 4 100.5 17t53.5 41q23 33 30 82t7 190v666q0 141 -7 190t-30 82q-20 28 -53.5 41t-100.5 17v20h785v-20q-67 -4 -100.5 -17t-53.5 -41q-23 -33 -30 -82t-7 -190v-666q0 -141 7 -190t30 -82q20 -28 53.5 -41t100.5 -17v-20h-785z" />
<glyph unicode="J" horiz-adv-x="1169" d="M-14 315q0 86 55 141.5t141 55.5q78 0 126 -49t48 -129q0 -31 -12 -113q-12 -74 -12 -104q0 -54 33.5 -85.5t89.5 -31.5q95 0 120 94q9 31 11 71t2 191v660q0 146 -6 193t-31 79q-20 28 -53.5 41t-100.5 17v20h785v-20q-66 -4 -99 -17t-55 -41q-23 -33 -30 -82t-7 -190 v-512q0 -132 -6.5 -186t-28.5 -95q-56 -109 -198.5 -179.5t-306.5 -70.5q-201 0 -333 96.5t-132 245.5z" />
<glyph unicode="K" horiz-adv-x="1615" d="M14 0v20q67 4 100.5 17t53.5 41q23 33 30 82t7 190v666q0 141 -7 190t-30 82q-20 28 -53.5 41t-100.5 17v20h785v-20q-67 -4 -100.5 -17t-53.5 -41q-25 -32 -31 -79t-6 -193v-309q86 90 213 239q88 101 124 173.5t36 146.5q0 58 -39 80v20h557v-20 q-138 -22 -313.5 -127.5t-317.5 -253.5l293 -441q168 -252 209 -307.5t90 -99.5q60 -48 108.5 -69.5t114.5 -27.5v-20h-649l-426 692v-342q0 -146 6 -193t31 -79q20 -28 53.5 -41t100.5 -17v-20h-785z" />
<glyph unicode="L" horiz-adv-x="1372" d="M14 0v20q69 6 101.5 18t52.5 40q25 32 31 79t6 193v666q0 146 -6 193t-31 79q-21 28 -53.5 41t-100.5 17v20h785v-20q-68 -4 -100.5 -17t-53.5 -41q-23 -33 -30 -82t-7 -190v-760q0 -142 29 -186.5t123 -44.5q213 0 403 217q69 78 115.5 162.5t87.5 207.5h20l-120 -612 h-1252z" />
<glyph unicode="M" horiz-adv-x="1992" d="M-41 0v20q97 17 154.5 55.5t95.5 110.5q37 69 52 165.5t15 264.5v433q0 125 -14 171.5t-61 77.5q-65 40 -195 48v20h694l340 -862l340 862h598v-20q-66 -4 -98.5 -17t-54.5 -41q-23 -33 -30 -82t-7 -190v-666q0 -141 7 -190t30 -82q22 -28 54.5 -41t98.5 -17v-20h-784v20 q67 4 100.5 17t53.5 41q23 32 29.5 80.5t6.5 191.5v959l-540 -1377l-541 1346v-696q0 -298 76 -430q39 -64 88.5 -93t140.5 -39v-20h-649z" />
<glyph unicode="N" horiz-adv-x="1646" d="M-41 0v20q122 21 190 84t97.5 183.5t29.5 328.5v371q0 136 -20 192.5t-84 102.5q-87 61 -213 64v20h668l731 -834v308q0 289 -101 417q-34 42 -71 61t-105 28v20h607v-20q-84 -9 -126 -33t-79 -84q-52 -78 -75.5 -191t-23.5 -286v-820l-1081 1233v-583q0 -301 76 -430 q40 -65 89.5 -94t139.5 -38v-20h-649z" />
<glyph unicode="O" horiz-adv-x="1583" d="M47 684q0 162 66.5 298.5t193.5 236.5q216 174 484 174q272 0 485 -174q260 -208 260 -545q0 -189 -100 -350.5t-271.5 -256t-373.5 -94.5q-274 0 -484 174q-260 208 -260 537zM492 684q0 -344 69 -522q29 -75 91.5 -118.5t140.5 -43.5q77 0 138.5 43.5t90.5 118.5 q70 185 70 514q0 349 -70 528q-31 75 -92 118.5t-139 43.5t-139.5 -43.5t-90.5 -118.5q-69 -175 -69 -520z" />
<glyph unicode="P" horiz-adv-x="1394" d="M14 0v20q69 5 101.5 17t52.5 41q24 33 30.5 81t6.5 191v664q0 143 -7 192t-30 82q-20 28 -52.5 40t-101.5 18v20h701q302 0 477.5 -104.5t175.5 -284.5q0 -94 -54 -173.5t-151 -129.5q-96 -48 -208.5 -68t-286.5 -20h-60v-236q0 -142 7.5 -191.5t33.5 -80.5 q25 -29 61.5 -41.5t114.5 -16.5v-20h-811zM608 610h51q155 0 217 83t62 290q0 192 -63 275t-211 83h-56v-731z" />
<glyph unicode="Q" horiz-adv-x="1583" d="M47 682q0 329 260 537q213 174 486 174q270 0 483 -174q260 -208 260 -537q0 -326 -260 -537q-211 -172 -485 -172q-43 0 -119 9q93 -21 262 -88q153 -63 218 -82t132 -19q86 0 136 35.5t81 120.5h21q-27 -165 -86 -264q-54 -86 -134.5 -131.5t-177.5 -45.5 q-117 0 -219.5 63t-208.5 198q-109 143 -146 179t-73 36q-31 0 -50 -22t-19 -56q0 -4 2 -31q2 -8 2 -25q0 -49 -28.5 -78.5t-74.5 -29.5q-38 0 -65 26t-27 64q0 69 84.5 121.5t198.5 52.5q40 0 104 -10q-97 26 -162.5 59t-134.5 90q-260 211 -260 537zM492 684 q0 -344 69 -522q29 -75 91.5 -118.5t140.5 -43.5q77 0 138.5 43.5t90.5 118.5q70 185 70 514q0 349 -70 528q-31 75 -92 118.5t-139 43.5t-139.5 -43.5t-90.5 -118.5q-69 -175 -69 -520z" />
<glyph unicode="R" horiz-adv-x="1626" d="M14 0v20q69 5 101.5 17t52.5 41q24 33 30.5 81t6.5 191v664q0 143 -7 192t-30 82q-20 28 -52.5 40t-101.5 18v20h574q227 0 359 -21t231 -73q89 -45 139.5 -118t50.5 -153q0 -112 -93 -186.5t-263 -99.5q110 -17 168 -65t129 -179l116 -223q75 -143 121 -182t148 -46v-20 h-600q-152 359 -228 504q-51 95 -101.5 134.5t-119.5 39.5h-37v-328q0 -142 7 -191.5t30 -80.5q22 -29 53.5 -41.5t100.5 -16.5v-20h-785zM608 702h58q142 0 207 76.5t65 243.5q0 157 -64 242q-31 41 -79 59t-129 18h-58v-639z" />
<glyph unicode="S" horiz-adv-x="1265" d="M55 633h21q67 -227 248 -432q95 -110 177.5 -155.5t188.5 -45.5q104 0 168 57.5t64 151.5q0 88 -68.5 153t-222.5 125l-201 78q-194 77 -282.5 167.5t-88.5 213.5q0 125 69.5 227.5t192 161t271.5 58.5q108 0 311 -47q61 -15 92 -15q23 0 33 9.5t16 35.5h21l22 -510h-20 q-78 235 -207.5 367.5t-281.5 132.5q-97 0 -157.5 -54.5t-60.5 -142.5q0 -97 72 -153q71 -59 252 -129l190 -72q174 -68 256 -162t82 -227q0 -192 -145.5 -322.5t-361.5 -130.5q-167 0 -441 60q-79 16 -100 16q-31 0 -46.5 -11t-21.5 -38h-20z" />
<glyph unicode="T" horiz-adv-x="1384" d="M0 950l59 477q44 -41 94.5 -51t206.5 -10h691q130 0 182 11.5t96 49.5l55 -477h-20q-49 139 -190 258t-277 138v-996q0 -143 7.5 -192t33.5 -80q25 -29 61.5 -41.5t114.5 -16.5v-20h-838v20q78 5 115 17t62 41q26 31 33.5 79t7.5 193v996q-135 -19 -275 -136t-199 -260 h-20z" />
<glyph unicode="U" horiz-adv-x="1542" d="M0 1346v20h772v-20q-63 -4 -93.5 -17t-49.5 -41q-23 -32 -29 -80t-6 -192v-479q0 -161 9.5 -236.5t37.5 -124.5q35 -61 113.5 -97t175.5 -36q101 0 179 34t122 97q37 52 50 114t13 179v186q0 324 -49 492q-26 87 -65 130t-115 71v20h518v-20q-76 -15 -121.5 -60 t-79.5 -139q-61 -168 -61 -522v-158q0 -162 -34 -250t-122 -149q-136 -95 -368 -95q-293 0 -461 115q-83 55 -114.5 138.5t-31.5 246.5v543q0 143 -6.5 191.5t-29.5 80.5q-20 28 -53.5 41t-100.5 17z" />
<glyph unicode="V" horiz-adv-x="1603" d="M-41 1346v20h784v-20q-64 -10 -92 -38.5t-28 -82.5q0 -41 20.5 -95.5t99.5 -222.5l236 -514l96 215q94 205 119 287t25 182q0 116 -39 189q-19 34 -41.5 51t-63.5 29v20h570v-20q-115 -38 -221.5 -171.5t-231.5 -394.5l-404 -848l-528 1086q-87 175 -147.5 241.5 t-153.5 86.5z" />
<glyph unicode="W" horiz-adv-x="2308" d="M-41 1346v20h752v-20q-44 -17 -64 -41.5t-20 -61.5q0 -34 20 -78l320 -733l207 420l-121 285q-54 121 -92.5 161t-106.5 48v20h741v-20q-110 -18 -110 -119q0 -55 43 -156l256 -608l51 104q162 332 162 543q0 107 -37 161.5t-123 74.5v20h512v-20q-74 -22 -138 -98 t-140 -234l-502 -1082l-383 885l-438 -885l-488 1086q-86 175 -146.5 240.5t-154.5 87.5z" />
<glyph unicode="X" horiz-adv-x="1628" d="M-35 1346v20h854v-20q-66 -14 -91.5 -33.5t-25.5 -57.5q0 -45 41 -120q13 -24 121 -183l60 -86q72 97 104.5 176t32.5 158q0 57 -18 89t-64 57v20h553v-20q-138 -29 -282 -151t-310 -349l416 -582q97 -134 162 -186t143 -58v-20h-809v20q49 10 70.5 31.5t21.5 57.5 q0 42 -27.5 93.5t-109.5 164.5l-154 213q-149 -183 -149 -361q0 -94 34 -140t113 -59v-20h-657v20q116 22 294.5 183t350.5 399l-229 316q-69 99 -112 158t-85 110t-67.5 76t-57.5 44.5t-58 27t-65 12.5z" />
<glyph unicode="Y" horiz-adv-x="1550" d="M-41 1346v20h795v-20q-54 -6 -82.5 -32t-28.5 -69q0 -68 76 -192l233 -387l70 112q137 223 137 396q0 75 -21 116t-67 56v20h520v-20q-199 -27 -518 -531l-104 -172v-293q0 -141 7 -190t30 -82q22 -28 54.5 -41t98.5 -17v-20h-784v20q67 4 99.5 17t53.5 41q23 33 30 82 t7 190v205l-336 559q-76 126 -132 173.5t-138 58.5z" />
<glyph unicode="Z" horiz-adv-x="1366" d="M27 0l831 1341h-4q-127 1 -273 -71q-148 -72 -273.5 -195.5t-190.5 -263.5h-21l131 555h1110l-833 -1341q140 0 253 45.5t236 150.5q213 185 295 391h21l-115 -612h-1167z" />
<glyph unicode="[" horiz-adv-x="618" d="M47 -266v1767h557v-37h-219v-1693h219v-37h-557z" />
<glyph unicode="\" horiz-adv-x="860" d="M-14 1366h55l831 -1366h-55z" />
<glyph unicode="]" horiz-adv-x="618" d="M14 -229h219v1693h-219v37h557v-1767h-557v37z" />
<glyph unicode="^" horiz-adv-x="1024" d="M-70 559l607 875h22l537 -875h-168l-260 424l-293 -424h-445z" />
<glyph unicode="_" horiz-adv-x="1024" d="M-4 -190h1030v-201h-1030v201z" />
<glyph unicode="`" horiz-adv-x="1024" d="M197 1386q0 51 33 85t83 34q53 0 89.5 -34t91.5 -136q6 -10 57 -84l88 -108l-21 -21l-100 58q-40 23 -151 59q-93 28 -131.5 61t-38.5 86z" />
<glyph unicode="a" horiz-adv-x="1239" d="M55 199q0 87 62 148t221 130q161 68 377 131v107q0 182 -27 231q-34 51 -94 51q-45 0 -82.5 -22t-56.5 -60q-14 -28 -19.5 -55.5t-17.5 -122.5q-12 -97 -70.5 -154t-146.5 -57q-63 0 -103.5 40.5t-40.5 103.5q0 123 176 225q118 67 282.5 111.5t295.5 44.5q120 0 186 -58 q44 -35 62 -86t18 -139v-471q0 -98 15 -129q16 -43 75 -43q29 0 82 27l13 -15q-106 -88 -185 -126t-155 -38q-86 0 -136.5 47.5t-70.5 147.5q-74 -103 -161 -149t-208 -46q-129 0 -210 63t-81 163zM473 303q0 -93 30.5 -141.5t88.5 -48.5q57 0 90 41t33 112v318 q-139 -44 -190.5 -104t-51.5 -177z" />
<glyph unicode="b" horiz-adv-x="1271" d="M-14 1399q136 28 296 70.5t244 72.5v-612q145 121 299 121q173 0 286.5 -136.5t113.5 -345.5q0 -126 -43.5 -237t-119 -189.5t-181.5 -124t-226 -45.5q-74 0 -126 11.5t-191 58.5q-41 14 -62 14q-69 0 -92 -84h-20v1131q0 93 -8.5 137t-32.5 76q-22 31 -52 44.5t-81 14.5 zM526 221q0 -120 28.5 -170.5t94.5 -50.5q193 0 193 492q0 241 -46.5 351.5t-146.5 110.5q-36 0 -63.5 -12.5t-59.5 -44.5v-676z" />
<glyph unicode="c" horiz-adv-x="1110" d="M47 496q0 153 76 280.5t207.5 201t290.5 73.5q180 0 305 -98.5t125 -239.5q0 -78 -48 -130.5t-120 -52.5q-75 0 -123.5 51t-48.5 128q0 40 20 104q17 61 17 88q0 54 -35.5 88.5t-89.5 34.5q-93 0 -157.5 -111t-64.5 -272q0 -184 95.5 -294.5t255.5 -110.5 q89 0 162.5 33.5t144.5 105.5l24 -13q-174 -389 -516 -389q-226 0 -373 148t-147 375z" />
<glyph unicode="d" horiz-adv-x="1257" d="M47 449q0 164 74.5 303t202.5 219t280 80q53 0 127 -27v80q0 93 -8.5 137t-32.5 76q-22 31 -52 44.5t-81 14.5l-4 23q308 62 541 143v-1145q0 -151 27 -195.5t124 -51.5v-21q-219 -59 -514 -156v164q-142 -164 -311 -164q-161 0 -267 135t-106 341zM430 506 q0 -213 42 -308.5t134 -95.5q36 0 62.5 15t62.5 55v737q0 53 -27.5 84t-74.5 31q-97 0 -148 -133t-51 -385z" />
<glyph unicode="e" horiz-adv-x="1155" d="M47 498q0 152 74 279t202 200.5t281 73.5q125 0 232 -50.5t176 -142.5q42 -56 63 -111t31 -137h-678q3 -381 342 -381q108 0 185.5 42.5t140.5 136.5l18 -9q-33 -88 -62 -140.5t-73 -106.5q-71 -86 -172 -132.5t-219 -46.5q-151 0 -275.5 69t-195 189.5t-70.5 266.5z M426 635h315q0 174 -14 248q-13 73 -43.5 107t-83.5 34q-83 0 -128.5 -101t-45.5 -288z" />
<glyph unicode="f" horiz-adv-x="905" d="M14 0v20q47 2 73.5 8t46.5 19t28.5 42t12 67.5t3.5 105.5v666h-119l234 297q148 187 228 245t188 58q152 0 257 -75t105 -183q0 -67 -45.5 -110.5t-114.5 -43.5q-49 0 -90 23t-63 63q-20 38 -25 150q-2 79 -18 110q-23 37 -60 37q-23 0 -46 -15t-38 -40q-30 -46 -30 -148 v-272h225l-55 -96h-170v-666q0 -58 2 -92.5t9.5 -64.5t18 -44t33.5 -24.5t50.5 -13t72.5 -3.5v-20h-713z" />
<glyph unicode="g" horiz-adv-x="1142" d="M47 233q0 82 57.5 151.5t180.5 135.5q-197 66 -197 232q0 71 53 134t150 107q105 50 262 58v39q0 148 68.5 235.5t183.5 87.5q78 0 131 -49t53 -121q0 -66 -41.5 -112t-101.5 -46q-64 0 -123 62q-31 33 -46 43t-32 10q-37 0 -53.5 -31t-16.5 -100v-18h21h25 q135 -3 274 -84q125 -77 125 -193q0 -126 -136.5 -213.5t-332.5 -87.5q-117 0 -244 39q-26 -20 -35.5 -37t-9.5 -41q0 -61 53.5 -85.5t186.5 -24.5q48 0 139 6q102 4 137 4q165 0 271 -83.5t106 -213.5q0 -113 -84.5 -206t-232.5 -146.5t-326 -53.5q-210 0 -332.5 54.5 t-122.5 146.5q0 118 213 193q-223 51 -223 208zM256 -98q0 -103 103 -168.5t266 -65.5q137 0 223 54.5t86 140.5q0 72 -60.5 110.5t-171.5 38.5q-24 0 -110 -4q-94 -4 -113 -4q-83 0 -162 12q-61 -41 -61 -114zM422 782q0 -146 33 -214t104 -68q68 0 97.5 56.5t29.5 186.5 q0 281 -137 281q-66 0 -96.5 -58t-30.5 -184z" />
<glyph unicode="h" horiz-adv-x="1339" d="M0 1399q295 59 541 143v-696q139 117 227 161t182 44q111 0 172 -70q29 -37 41.5 -85.5t12.5 -131.5v-543v-22q0 -107 18 -137q20 -34 104 -42v-20h-581v20q45 5 65 21q20 17 26 55q6 33 5 103v22v490q0 97 -27 133q-13 20 -38.5 32.5t-51.5 12.5q-64 0 -155 -76v-592 q0 -119 12 -151q17 -44 82 -50v-20h-621v20q47 2 73.5 8t46.5 19t28.5 42t12 67.5t3.5 105.5v842q0 93 -8.5 137t-32.5 76q-22 31 -52 44.5t-81 14.5z" />
<glyph unicode="i" horiz-adv-x="702" d="M0 893q138 32 294.5 77.5t246.5 80.5v-789q0 -56 1.5 -90t7.5 -63t15 -43.5t27.5 -25.5t40.5 -14.5t57 -5.5v-20h-663v20q36 2 58 5.5t40.5 14t27.5 25t15.5 43.5t8 63.5t1.5 90.5v336q0 93 -8.5 137.5t-32.5 77.5q-22 29 -52.5 42.5t-82.5 16.5zM117 1335q0 89 64 153 t153 64q92 0 155.5 -63.5t63.5 -157.5q0 -88 -64 -151.5t-153 -63.5q-91 0 -155 64t-64 155z" />
<glyph unicode="j" horiz-adv-x="702" d="M-336 -174q0 66 45 106.5t117 40.5t119 -48t47 -122q0 -27 -2 -43q-2 -14 -2 -39q0 -46 23.5 -72t66.5 -26q26 0 48.5 13.5t33.5 35.5q16 33 16 148v778q0 94 -8.5 138.5t-32.5 76.5q-22 29 -52 42.5t-81 16.5l-4 21q136 31 301.5 79.5t239.5 78.5v-969q0 -147 -24 -219 t-95 -135q-150 -131 -377 -131q-170 0 -274.5 63t-104.5 166zM129 1348q0 83 60 142.5t143 59.5q86 0 145.5 -59.5t59.5 -147.5q0 -82 -60 -141t-143 -59q-85 0 -145 60t-60 145z" />
<glyph unicode="k" horiz-adv-x="1372" d="M0 1399q133 28 298.5 71.5t242.5 71.5v-967l129 136q135 138 135 229q0 42 -31 64v20h440v-20q-92 -17 -218 -78t-220 -133l389 -564q83 -120 135 -164t113 -45v-20h-541l-331 557v-295q0 -56 1.5 -90t7.5 -63t15 -43.5t27.5 -25.5t40.5 -14.5t57 -5.5v-20h-676v20 q47 2 73.5 8t46.5 19t28.5 42t12 67.5t3.5 105.5v842q0 93 -8.5 137t-32.5 76q-22 31 -52 44.5t-81 14.5z" />
<glyph unicode="l" horiz-adv-x="702" d="M0 1399q326 68 541 143v-1280q0 -56 1.5 -90t7.5 -63t15 -43.5t27.5 -25.5t40.5 -14.5t57 -5.5v-20h-663v20q36 2 58 5.5t40.5 14t27.5 25t15.5 43.5t8 63.5t1.5 90.5v842q0 93 -8.5 137t-32.5 76q-22 31 -52.5 44.5t-82.5 14.5z" />
<glyph unicode="m" horiz-adv-x="1957" d="M0 893q145 33 246 62.5t295 95.5v-195q192 195 383 195q118 0 186 -68q25 -25 36.5 -51t20.5 -76q109 103 200.5 149t188.5 46q104 0 173 -66q65 -68 65 -225v-539v-21q0 -108 19 -139q21 -34 104 -41v-20h-582v20q45 5 65 21q19 17 26 55q6 34 6 104v21v467 q0 128 -25 168q-30 45 -90 45q-65 0 -150 -76v-604v-21q0 -70 6 -104q7 -38 26.5 -54.5t64.5 -21.5v-20h-553v20q65 6 82 50q12 32 12 151v467q0 120 -27 162q-12 23 -37 36t-55 13q-37 0 -70 -16.5t-75 -57.5v-604v-22q-1 -69 5 -103q6 -38 25.5 -54.5t63.5 -21.5v-20h-621 v20q47 2 73.5 8t46.5 19t28.5 42t12 67.5t3.5 105.5v336q0 94 -8.5 138.5t-32.5 76.5q-22 29 -52 42.5t-81 16.5z" />
<glyph unicode="n" horiz-adv-x="1333" d="M0 893q246 54 541 158v-195q104 108 187.5 151.5t184.5 43.5q69 0 124.5 -22.5t84.5 -63.5q26 -33 36.5 -81.5t10.5 -131.5v-531v-21q0 -108 19 -139q21 -34 104 -41v-20h-579v20q65 6 82 50q12 32 12 151v387q0 120 -4.5 164.5t-18.5 71.5q-10 23 -36 37t-54 14 q-72 0 -153 -72v-602v-22q-1 -69 5 -103q6 -38 25.5 -54.5t63.5 -21.5v-20h-621v20q47 2 73.5 8t46.5 19t28.5 42t12 67.5t3.5 105.5v336q0 94 -8.5 138.5t-32.5 76.5q-22 29 -52 42.5t-81 16.5z" />
<glyph unicode="o" horiz-adv-x="1226" d="M47 512q0 149 74.5 273t204.5 195t286 71q214 0 381 -138q187 -156 187 -409q0 -145 -75.5 -267.5t-206 -193t-286.5 -70.5t-286 71t-204.5 195t-74.5 273zM442 512q0 -354 58 -446q41 -66 114 -66q82 0 123 84q47 96 47 424q0 359 -57 450q-41 66 -115 66 q-82 0 -123 -84q-47 -96 -47 -428z" />
<glyph unicode="p" horiz-adv-x="1259" d="M-27 -383q68 4 101 16.5t53 40.5q24 32 30.5 79.5t6.5 193.5v651q0 94 -8.5 138.5t-32.5 76.5q-22 30 -51.5 43t-81.5 16l-2 21q135 31 297 78.5t241 79.5v-133q85 70 157.5 101.5t150.5 31.5q167 0 272.5 -135.5t105.5 -352.5q0 -163 -64 -298.5t-175.5 -213.5 t-245.5 -78q-59 0 -104 16.5t-97 57.5v-188q0 -55 2 -89.5t9.5 -63.5t18.5 -43.5t32.5 -25.5t48 -14.5t68.5 -5.5v-20h-732v20zM526 80q43 -43 101 -43q95 0 148.5 121t53.5 336q0 206 -48.5 324t-133.5 118q-46 0 -121 -49v-807z" />
<glyph unicode="q" horiz-adv-x="1253" d="M47 406q0 171 78.5 320t211.5 237t286 88q54 0 105.5 -10t170.5 -42q73 -18 96 -18q25 0 41 15t33 55h21v-1192q0 -56 2 -90t8.5 -63t16.5 -43.5t29.5 -25.5t43.5 -14.5t63 -5.5v-20h-702v20q65 3 94.5 12.5t48.5 32.5q20 23 26.5 61.5t6.5 135.5v241q-73 -72 -135 -99.5 t-150 -27.5q-177 0 -286 119.5t-109 313.5zM430 494q0 -422 176 -422q61 0 121 63v635q0 106 -8 158.5t-28 74t-60 21.5q-50 0 -91 -37t-61 -100q-49 -152 -49 -393z" />
<glyph unicode="r" horiz-adv-x="989" d="M0 893q164 38 255 65.5t269 92.5v-314q62 164 134.5 239t170.5 75q78 0 132.5 -52t54.5 -127q0 -73 -46 -122.5t-112 -49.5q-58 0 -96 35q-17 15 -60 72q-33 41 -61 41q-39 0 -63 -43q-23 -41 -30 -95.5t-7 -191.5v-256q0 -67 3.5 -105.5t11.5 -67.5t28 -42t46 -19t72 -8 v-20h-688v20q47 2 73.5 8t46.5 19t28.5 42t12 67.5t3.5 105.5v336q0 94 -8.5 138.5t-32.5 76.5q-22 29 -52 42.5t-81 16.5z" />
<glyph unicode="s" horiz-adv-x="1044" d="M82 489h20q97 -224 230 -356.5t262 -132.5q69 0 110 40.5t41 106.5t-42.5 108.5t-149.5 80.5l-100 37q-195 71 -280 150.5t-85 191.5q0 145 125.5 240.5t314.5 95.5q154 0 363 -60l20 -336h-20q-66 158 -174 263.5t-205 105.5q-60 0 -101.5 -40t-41.5 -97 q0 -123 192 -187l139 -45q163 -54 237.5 -128t74.5 -183q0 -161 -128.5 -266t-326.5 -105q-76 0 -199.5 29.5t-255.5 79.5z" />
<glyph unicode="t" horiz-adv-x="782" d="M-88 928q179 77 344 215.5t270 296.5v-416h258l-51 -96h-207v-590q0 -117 39.5 -167t130.5 -50q50 0 117 22l12 -16q-114 -83 -197.5 -118.5t-168.5 -35.5q-121 0 -203 66q-51 43 -71.5 104.5t-20.5 171.5v613h-252z" />
<glyph unicode="u" horiz-adv-x="1323" d="M8 973v20q77 2 239 20t279 38v-742q0 -95 23 -137q12 -23 39.5 -37t60.5 -14q70 0 148 78v532q0 145 -29.5 190.5t-126.5 51.5v20q77 2 239 20t279 38v-678q0 -129 30 -176t118 -58v-20q-113 -19 -252 -64l-258 -82v193q-88 -79 -135 -111q-124 -82 -254 -82 q-59 0 -114 24.5t-85 63.5q-25 34 -35 81.5t-10 131.5v457q0 145 -29.5 190.5t-126.5 51.5z" />
<glyph unicode="v" horiz-adv-x="1183" d="M-41 1004v20h670v-20q-90 -18 -90 -86q0 -47 51 -158l182 -381l47 100q88 175 88 330q0 78 -16 121t-57 74v20h391v-20q-72 -22 -148.5 -117.5t-165.5 -276.5l-321 -665l-418 846q-57 113 -97 153t-116 60z" />
<glyph unicode="w" horiz-adv-x="1937" d="M-41 1004v20h633v-20q-31 -4 -44 -19.5t-13 -44.5q0 -44 45 -139l196 -410l158 334q-59 127 -90 179.5t-59.5 73.5t-77.5 26v20h645v-20q-46 -6 -67 -27t-21 -59q0 -31 13 -66.5t75 -171.5l131 -289q91 193 115 269.5t24 168.5q0 79 -23 117.5t-83 57.5v20h462v-20 q-195 -47 -403 -482l-275 -577l-350 753l-354 -753l-397 813q-70 145 -118 194t-122 52z" />
<glyph unicode="x" horiz-adv-x="1302" d="M-41 0v20q86 15 231 130.5t322 310.5l-260 350q-75 103 -127.5 146t-110.5 47v20h654v-20q-45 -16 -45 -62t71 -145l76 -109q65 74 88 118t23 93q0 75 -58 105v20h422v-20q-74 -15 -211.5 -116t-247.5 -222l322 -443q91 -127 124.5 -156.5t110.5 -46.5v-20h-712v20 q47 15 67.5 37.5t20.5 59.5q0 28 -18.5 64t-69.5 112l-101 147q-70 -91 -99.5 -159t-29.5 -140q0 -47 15 -73.5t51 -47.5v-20h-508z" />
<glyph unicode="y" horiz-adv-x="1216" d="M-51 -225q0 76 51.5 127t128.5 51q53 0 90 -21.5t80 -76.5q31 -42 52 -57t48 -15q29 0 61.5 22.5t55.5 59.5q28 46 64 117l-410 827q-53 114 -93 151.5t-118 43.5v20h672v-20q-47 -3 -68.5 -24.5t-21.5 -64.5q0 -59 45 -147l190 -387q90 179 118 263t28 173q0 84 -29 126 t-98 61v20h465v-20q-78 -12 -157.5 -104.5t-184.5 -295.5l-363 -729q-78 -157 -167.5 -231t-199.5 -74q-106 0 -172.5 57t-66.5 148z" />
<glyph unicode="z" horiz-adv-x="1159" d="M27 0l628 999q-174 -29 -337 -144t-228 -253l-18 4l135 475q20 -35 46 -46t89 -11h743l-626 -999q159 3 336 140t290 343l19 -6l-154 -543q-43 26 -75 33.5t-107 7.5h-741z" />
<glyph unicode="{" horiz-adv-x="593" d="M-27 629v35q75 7 102 45.5t27 136.5q0 53 -6 219q0 63 17 213q9 63 29.5 103t58.5 71q65 49 145 49h236v-37q-59 -3 -88.5 -16.5t-49.5 -46.5q-31 -45 -38 -95.5t-7 -213.5l2 -144q10 -149 -42.5 -211.5t-208.5 -87.5v-6q93 -9 155.5 -51t79.5 -107q10 -49 10 -129 l2 -344q3 -133 45.5 -188.5t139.5 -52.5v-37h-254q-47 0 -96 25t-80 65q-60 75 -60 235q0 33 4 273q2 66 2 129q0 87 -28 124.5t-97 43.5z" />
<glyph unicode="|" horiz-adv-x="1024" d="M377 -342v1708h270v-1708h-270z" />
<glyph unicode="}" horiz-adv-x="593" d="M14 -229q82 -2 123 33.5t56 121.5q6 55 6 140l2 333q-2 107 59 168t186 76v6q-156 25 -208.5 87.5t-42.5 211.5l2 144q0 163 -7 213.5t-38 95.5q-20 33 -49.5 46.5t-88.5 16.5v37h236q68 0 125.5 -37t85.5 -98q14 -31 26.5 -126t12.5 -169l-6 -225q0 -98 27 -136.5 t102 -45.5v-35q-69 -6 -97 -43.5t-28 -124.5q0 -31 4 -293q2 -51 2 -109q0 -160 -60 -235q-31 -40 -80 -65t-96 -25h-254v37z" />
<glyph unicode="~" horiz-adv-x="1366" d="M299 1255q75 138 133 194t127 56q48 0 154 -39q113 -39 161 -39q67 0 132 74l59 -35q-42 -85 -115 -174q-35 -41 -69.5 -57t-89.5 -16q-33 0 -63 8.5t-120 44.5q-60 24 -116 24q-35 0 -60.5 -12.5t-56.5 -44.5l-19 -18z" />
<glyph unicode="&#xa1;" horiz-adv-x="593" d="M41 291q0 54 18.5 116.5t67.5 167.5q78 178 97.5 237.5t23.5 139.5h20q3 -78 25 -145.5t76 -167.5q80 -154 104.5 -218t24.5 -118q0 -89 -55 -168t-175 -162q-59 44 -86.5 67.5t-52.5 53.5q-88 102 -88 197zM72 1241q0 80 58 137.5t140 57.5t139.5 -58t57.5 -141 q0 -82 -57.5 -139.5t-139.5 -57.5q-84 0 -141 58t-57 143z" />
<glyph unicode="&#xa2;" d="M104 694q0 124 54 237t151 191q66 54 132 80t180 43v277h26v-275q20 2 49 2q169 0 284.5 -91t115.5 -224q0 -77 -46 -127.5t-116 -50.5q-81 0 -128.5 49t-47.5 133q0 47 8 86q10 62 10 82q0 53 -35.5 85t-93.5 32v-736q54 -25 90 -33t92 -8q92 0 158 27t117 86l20 -6 q-89 -200 -195.5 -285.5t-281.5 -97.5v-272h-26v272q-93 3 -163 25t-134 69q-104 74 -162 187t-58 243zM453 903q0 -139 41 -236t127 -163v715q-88 -22 -128 -97.5t-40 -218.5z" />
<glyph unicode="&#xa3;" d="M27 117q0 52 34 97.5t95 78.5q43 23 94 31t147 10q-15 87 -40.5 150.5t-88.5 168.5q-31 56 -41 82h-121v86h89q-25 65 -25 121q0 120 65 224t174 165.5t234 61.5q161 0 281 -90t120 -211q0 -65 -42.5 -107.5t-108.5 -42.5q-72 0 -116 55t-44 144q0 33 6 71t6 58 q0 40 -32.5 68t-81.5 28q-77 0 -125.5 -57.5t-48.5 -149.5q0 -56 19 -112t83 -185q3 -9 19 -41h311v-86h-281q31 -85 31 -170q0 -115 -61 -231l45 -6q18 -3 69.5 -10.5t79.5 -12.5q103 -14 174 -14q80 0 130 29.5t81 93.5q26 54 37 174h20q-5 -131 -25 -226t-61 -178 q-56 -111 -132 -161t-191 -50q-184 0 -356 138q-59 -71 -117.5 -104.5t-126.5 -33.5q-76 0 -127 41t-51 103zM39 121q0 -47 39.5 -79t99.5 -32q70 0 115.5 37t73.5 115q-101 63 -187 63q-58 0 -99.5 -30.5t-41.5 -73.5z" />
<glyph unicode="&#xa4;" horiz-adv-x="1132" d="M117 262l184 184q-90 103 -90 236q0 132 90 238l-184 182l28 31l185 -185q107 90 235 90q131 0 238 -90l182 185l29 -31l-183 -182q91 -108 91 -238q0 -129 -91 -236l183 -184l-29 -29l-184 185q-107 -90 -236 -90t-235 90l-185 -185zM248 684q0 -131 93 -225t222 -94 q135 0 228.5 92.5t93.5 226.5q0 130 -93.5 223.5t-224.5 93.5q-133 0 -226 -92.5t-93 -224.5z" />
<glyph unicode="&#xa5;" horiz-adv-x="1605" d="M-14 1346v20h794v-20q-54 -6 -82 -32t-28 -69q0 -67 75 -192l84 -138h293q35 78 49.5 136t14.5 123q0 75 -21 116t-67 56v20h520v-20q-96 -19 -196.5 -114.5t-258.5 -316.5h307v-26h-325q-7 -12 -16.5 -26.5t-16 -25t-12.5 -22.5l-105 -172v-84h281v-27h-281v-182 q0 -141 7 -190t30 -82q22 -28 55 -41t99 -17v-20h-785v20q67 4 100.5 17t53.5 41q24 33 30.5 81t6.5 191v182h-262v27h258l-197 330h-258v26h242l-119 199q-76 126 -132 173.5t-138 58.5zM846 889l133 -223l70 112q23 40 61 111h-264z" />
<glyph unicode="&#xa6;" horiz-adv-x="1024" d="M377 313h270v-655h-270v655zM377 612v754h270v-754h-270z" />
<glyph unicode="&#xa7;" d="M86 475q0 107 56.5 187t181.5 149q-70 60 -98.5 112.5t-28.5 123.5q0 148 120.5 247t300.5 99q176 0 386 -97l20 -313h-20q-61 167 -167.5 275t-209.5 108q-62 0 -103 -38t-41 -95q0 -46 29.5 -77.5t101.5 -65.5l310 -144q114 -54 166.5 -119.5t52.5 -154.5 q0 -90 -59 -171.5t-185 -164.5q88 -60 127 -128t39 -161q0 -163 -120 -255.5t-329 -92.5q-118 0 -211.5 19.5t-224.5 72.5l-33 385h21q56 -183 156 -299q133 -151 264 -151q72 0 121 48t49 120q0 56 -32 90.5t-126 78.5l-348 173q-85 41 -125.5 99t-40.5 140zM279 696 q0 -32 22.5 -53t91.5 -55l473 -234q78 44 78 92q0 42 -55 76q-80 49 -238 129l-295 142q-77 -39 -77 -97z" />
<glyph unicode="&#xa8;" horiz-adv-x="1024" d="M129 1327q0 66 48 114t114 48q69 0 116.5 -47.5t47.5 -116.5q0 -66 -48 -114t-114 -48q-67 0 -115.5 48.5t-48.5 115.5zM569 1327q0 66 48 114t114 48q69 0 116.5 -47.5t47.5 -116.5q0 -66 -48 -114t-114 -48q-67 0 -115.5 48.5t-48.5 115.5z" />
<glyph unicode="&#xa9;" horiz-adv-x="1515" d="M47 684q0 144 56.5 275.5t151.5 226.5t226.5 151t276.5 56q144 0 275 -56t226 -151t151 -226.5t56 -275.5q0 -195 -95 -358.5t-260.5 -258t-362.5 -94.5q-141 0 -270.5 57t-224 152.5t-150.5 227t-56 274.5zM88 684q0 -135 53 -259t142.5 -214t211.5 -143.5t255 -53.5 q139 0 264 52.5t215 141.5t143 213.5t53 262.5q0 181 -89.5 335t-243 243.5t-334.5 89.5q-182 0 -336.5 -89.5t-244 -243t-89.5 -335.5zM307 694q0 179 131 303.5t320 124.5q69 0 168 -22q48 -13 63 -13q12 0 17 5t10 20h22l21 -340h-25q-46 145 -122.5 232.5t-159.5 87.5 q-85 0 -128.5 -103t-43.5 -303q0 -189 52.5 -293t149.5 -104q77 0 151 95.5t111 242.5h25l-10 -365h-27q0 15 -4 20t-16 5q-7 0 -86 -15q-85 -14 -152 -14q-197 0 -332 126t-135 310z" />
<glyph unicode="&#xaa;" horiz-adv-x="835" d="M39 874q0 74 92 129.5t318 118.5v58q0 96 -14 128.5t-54 32.5q-43 0 -66 -26t-30 -86q-6 -52 -11.5 -70.5t-19.5 -38.5q-43 -59 -115 -59q-43 0 -70.5 26t-27.5 66q0 80 113 139q73 41 175.5 67.5t186.5 26.5q89 0 131.5 -42.5t42.5 -133.5v-278q0 -57 9 -75.5t38 -18.5 q19 0 54 18l16 -18q-70 -57 -120 -80t-101 -23q-108 0 -133 103q-84 -103 -224 -103q-85 0 -137.5 38.5t-52.5 100.5zM313 938q0 -107 66 -107q32 0 51 22.5t19 61.5v179q-77 -25 -106.5 -58.5t-29.5 -97.5z" />
<glyph unicode="&#xab;" horiz-adv-x="632" d="M0 522l330 320l8 -23l-143 -297l143 -297l-8 -20zM254 516l330 318l8 -21l-143 -297l143 -299l-8 -20z" />
<glyph unicode="&#xac;" horiz-adv-x="1024" d="M53 365v182h920v-547h-428v365h-492z" />
<glyph unicode="&#xad;" horiz-adv-x="536" d="M0 440v158h537v-158h-537z" />
<glyph unicode="&#xae;" horiz-adv-x="1515" d="M47 682q0 145 56.5 276.5t151.5 226.5t226.5 151.5t276.5 56.5q193 0 356.5 -95t258.5 -258.5t95 -355.5q0 -195 -95 -358.5t-260.5 -258t-362.5 -94.5q-142 0 -272 57t-224.5 152t-150.5 226t-56 274zM88 682q0 -182 89.5 -335.5t244 -243t336.5 -89.5q156 0 292 66.5 t238 191.5h-332q-54 129 -108 246q-44 96 -76.5 129t-81.5 33h-14v-191q0 -98 6.5 -128.5t30.5 -45.5q12 -9 25.5 -12t52.5 -6v-25h-486v25q40 3 55 7t29 15q20 17 25.5 46.5t5.5 123.5v400q0 98 -6.5 128.5t-30.5 45.5q-18 11 -78 16v27h352q137 0 216.5 -12.5t142.5 -44.5 q56 -29 86.5 -73t30.5 -95q0 -128 -183 -172q46 -12 77.5 -43.5t68.5 -100.5l69 -135q43 -79 67.5 -102t74.5 -29q120 175 120 383q0 137 -53 261t-142 213.5t-213 142.5t-261 53q-182 0 -336 -89.5t-244 -244t-90 -336.5zM676 709h29q82 0 118.5 43.5t36.5 140.5 q0 98 -36 141t-119 43h-29v-368z" />
<glyph unicode="&#xaf;" horiz-adv-x="1024" d="M170 1311v26h682v-26h-682z" />
<glyph unicode="&#xb0;" horiz-adv-x="819" d="M55 1026q0 146 104.5 250t252.5 104q147 0 250.5 -103.5t103.5 -250.5q0 -150 -104 -253t-256 -103q-143 0 -247 105t-104 251zM92 1026q0 -130 93.5 -224.5t222.5 -94.5q135 0 228 92.5t93 226.5q0 130 -93.5 223.5t-223.5 93.5q-133 0 -226.5 -92.5t-93.5 -224.5z" />
<glyph unicode="&#xb1;" horiz-adv-x="1132" d="M20 0v41h1092v-41h-1092zM20 662v40h527v527h41v-527h524v-40h-524v-525h-41v525h-527z" />
<glyph unicode="&#xb2;" horiz-adv-x="874" d="M98 547q4 94 31 143.5t104 106.5q102 76 134 108q96 92 96 182q0 61 -43 99.5t-111 38.5q-55 0 -90.5 -21t-60.5 -67h-25q40 126 118 184.5t204 58.5q129 0 214 -67.5t85 -171.5q0 -123 -127 -203q-52 -34 -185 -80q-107 -35 -157 -61.5t-95 -71.5h318q128 0 174.5 14.5 t77.5 63.5h24q-53 -138 -92 -287h-22q-2 17 -12.5 23t-41.5 6q-24 0 -47 2h-45h-426z" />
<glyph unicode="&#xb3;" horiz-adv-x="874" d="M90 713q0 54 34.5 87.5t90.5 33.5q49 0 83 -30.5t34 -74.5q0 -19 -10 -57q-7 -32 -7 -49q0 -29 24.5 -47.5t61.5 -18.5q61 0 98.5 52.5t37.5 138.5q0 101 -52 171t-141 87v20q82 18 107 43q43 40 43 98q0 45 -35.5 75t-89.5 30q-44 0 -72.5 -15.5t-56.5 -52.5l-23 4 q29 83 95 127.5t159 44.5q107 0 177.5 -51t70.5 -129q0 -79 -74 -127q137 -73 137 -217q0 -135 -116.5 -230.5t-280.5 -95.5q-132 0 -213.5 50.5t-81.5 132.5z" />
<glyph unicode="&#xb4;" horiz-adv-x="1024" d="M385 1143l86 108q48 63 88 138q63 116 154 116q47 0 80.5 -35t33.5 -84q0 -52 -38 -85t-132 -62q-106 -34 -153 -59l-98 -58z" />
<glyph unicode="&#xb5;" horiz-adv-x="1038" d="M-16 -279q0 52 20 144q30 126 49 287.5t19 291.5v492h360v-590q4 -117 6 -139.5t8 -42.5q7 -20 26.5 -34.5t37.5 -14.5q38 0 100 73v748h359v-643q0 -114 17.5 -147t78.5 -33h31l12 2v-47l-330 -93q-6 -2 -14 -2q-42 0 -72.5 29t-56.5 94q-78 -129 -221 -129 q-78 0 -124 35.5t-89 128.5q-2 -10 -2 -22q0 -50 17 -105.5t71 -179.5q32 -75 32 -111q0 -54 -46.5 -90.5t-116.5 -36.5q-78 0 -125 37t-47 98z" />
<glyph unicode="&#xb6;" horiz-adv-x="1064" d="M14 1006q0 102 44 182t124 123q107 55 305 55h551v-205h-219v-1702h-55v1702h-205v-1702h-59v1198h-80q-195 0 -300.5 91t-105.5 258z" />
<glyph unicode="&#xb7;" horiz-adv-x="477" d="M41 522q0 82 57.5 139.5t139.5 57.5q84 0 141 -58t57 -143q0 -79 -58 -136.5t-138 -57.5q-83 0 -141 57.5t-58 140.5z" />
<glyph unicode="&#xb8;" horiz-adv-x="1024" d="M430 -334q0 10 8 18.5t19 8.5q23 0 41 -33q13 -25 25 -33t32 -8q29 0 46 19.5t17 50.5q0 47 -37 78.5t-92 31.5q-24 0 -47 -4q44 47 76 103.5t41 101.5h27q-10 -42 -27 -80q82 -7 126 -47.5t44 -108.5q0 -72 -51 -122t-125 -50q-48 0 -85.5 22.5t-37.5 51.5z" />
<glyph unicode="&#xb9;" horiz-adv-x="874" d="M170 1176v22q97 31 213.5 87t194.5 110v-635q0 -83 4 -111.5t18 -46.5q13 -17 34.5 -23.5t70.5 -9.5v-22h-521v22q86 4 105.5 33t19.5 150v305q0 83 -21 101t-118 18z" />
<glyph unicode="&#xba;" horiz-adv-x="745" d="M14 1061q0 136 104 230.5t255 94.5q155 0 257.5 -94t102.5 -235q0 -135 -104.5 -228.5t-255.5 -93.5t-255 94t-104 232zM276 1061q0 -163 22 -229t77 -66q53 0 74.5 66t21.5 227q0 166 -21.5 231.5t-76.5 65.5q-54 0 -75.5 -66t-21.5 -229z" />
<glyph unicode="&#xbb;" horiz-adv-x="632" d="M41 217l143 299l-143 297l8 21l330 -318l-330 -319zM295 225l145 297l-145 297l8 23l330 -320l-330 -317z" />
<glyph unicode="&#xbc;" horiz-adv-x="1869" d="M170 1176v22q97 31 213.5 87t194.5 110v-635q0 -83 4 -111.5t18 -46.5q13 -17 34.5 -23.5t70.5 -9.5v-22h-521v22q86 4 105.5 33t19.5 150v305q0 83 -21 101t-118 18zM492 0l833 1366h53l-831 -1366h-55zM991 319q275 251 494 512h184v-497h47q47 0 67 6t46 29l22 -9 q-43 -58 -71 -131h-111v-73q0 -77 30.5 -104.5t117.5 -28.5v-23h-562v23q100 3 129 27t29 106v73h-369q-25 49 -53 90zM1110 334h303v307q-158 -172 -303 -307z" />
<glyph unicode="&#xbd;" horiz-adv-x="1869" d="M170 1176v22q97 31 213.5 87t194.5 110v-635q0 -83 4 -111.5t18 -46.5q13 -17 34.5 -23.5t70.5 -9.5v-22h-521v22q86 4 105.5 33t19.5 150v305q0 83 -21 101t-118 18zM492 0l833 1366h53l-831 -1366h-55zM1096 0q6 104 37.5 153.5t148.5 137.5q96 73 137 130.5t41 119.5 q0 60 -42.5 97.5t-110.5 37.5q-55 0 -91 -20.5t-63 -65.5h-23q38 124 116 182.5t206 58.5q129 0 214 -67t85 -170q0 -121 -127 -201q-34 -22 -67 -36.5t-117 -43.5q-110 -37 -160 -63.5t-94 -71.5h319q128 0 174.5 14.5t75.5 65.5h25q-43 -121 -55.5 -160t-36.5 -129h-23 q-2 18 -11.5 23.5t-39.5 5.5q-26 0 -49 2h-43h-426z" />
<glyph unicode="&#xbe;" horiz-adv-x="1869" d="M90 713q0 54 34.5 87.5t90.5 33.5q49 0 83 -30.5t34 -74.5q0 -19 -10 -57q-7 -32 -7 -49q0 -29 24.5 -47.5t61.5 -18.5q61 0 98.5 52.5t37.5 138.5q0 101 -52 171t-141 87v20q82 18 107 43q43 40 43 98q0 45 -35.5 75t-89.5 30q-44 0 -72.5 -15.5t-56.5 -52.5l-23 4 q29 83 95 127.5t159 44.5q107 0 177.5 -51t70.5 -129q0 -79 -74 -127q137 -73 137 -217q0 -135 -116.5 -230.5t-280.5 -95.5q-132 0 -213.5 50.5t-81.5 132.5zM492 0l831 1366h55l-833 -1366h-53zM991 319q267 244 492 512h184v-497h49q47 0 67 6t46 29l22 -9 q-47 -65 -71 -131h-113v-73q0 -76 31 -103.5t119 -29.5v-23h-562v23q99 3 127.5 27.5t28.5 105.5v73h-367q-25 49 -53 90zM1110 334h301v307q-56 -62 -153.5 -162t-147.5 -145z" />
<glyph unicode="&#xbf;" horiz-adv-x="1169" d="M35 311q0 141 139 244q37 27 71.5 45.5t145.5 71.5q111 56 161 101t50 91q0 27 -12 41.5t-41 20.5q17 22 33 22q20 0 33.5 -22.5t13.5 -53.5q0 -48 -58 -147q-125 -207 -125 -414q0 -130 66.5 -214.5t167.5 -84.5q62 0 98.5 29t36.5 78t-49 139q-33 59 -33 117 q0 80 53.5 132t135.5 52q78 0 129 -54.5t51 -137.5q0 -106 -70 -196.5t-190 -144t-260 -53.5q-92 0 -190.5 23t-178.5 63q-85 43 -131.5 109t-46.5 143zM371 1200q0 80 58 137.5t140 57.5t139.5 -58t57.5 -141q0 -82 -57.5 -139.5t-139.5 -57.5q-84 0 -141 58t-57 143z" />
<glyph unicode="&#xc0;" horiz-adv-x="1624" d="M-41 0v20q127 12 250 151t205 361l207 547q-34 64 -80 107q72 32 167.5 115.5t180.5 187.5q74 -199 106 -277l265 -637q59 -138 94 -216.5t71.5 -148.5t58.5 -100t53.5 -53.5t58 -29t69.5 -7.5v-20h-825v20q145 6 145 115q0 77 -86 281l-45 106h-414q-51 -138 -51 -248 q0 -114 54 -181t149 -73v-20h-633zM449 547h399l-211 508zM510 1739q0 51 33.5 85t83.5 34q53 0 88.5 -33.5t91.5 -136.5q24 -39 59 -84l86 -109l-20 -20l-98 55q-45 24 -154 61q-92 28 -131 61.5t-39 86.5z" />
<glyph unicode="&#xc1;" horiz-adv-x="1624" d="M-41 0v20q127 12 250 151t205 361l207 547q-34 64 -80 107q72 32 167.5 115.5t180.5 187.5q74 -199 106 -277l265 -637q59 -138 94 -216.5t71.5 -148.5t58.5 -100t53.5 -53.5t58 -29t69.5 -7.5v-20h-825v20q145 6 145 115q0 77 -86 281l-45 106h-414q-51 -138 -51 -248 q0 -114 54 -181t149 -73v-20h-633zM449 547h399l-211 508zM686 1495l86 109q33 40 45 58.5t43 76.5q63 119 152 119q49 0 82.5 -34.5t33.5 -84.5q0 -53 -39 -86.5t-131 -61.5q-106 -36 -153 -61l-98 -55z" />
<glyph unicode="&#xc2;" horiz-adv-x="1624" d="M-41 0v20q127 12 250 151t205 361l207 547q-34 64 -80 107q72 32 167.5 115.5t180.5 187.5q74 -199 106 -277l265 -637q59 -138 94 -216.5t71.5 -148.5t58.5 -100t53.5 -53.5t58 -29t69.5 -7.5v-20h-825v20q145 6 145 115q0 77 -86 281l-45 106h-414q-51 -138 -51 -248 q0 -114 54 -181t149 -73v-20h-633zM436 1532l307 287h138l307 -287l-14 -19l-361 117l-360 -117zM449 547h399l-211 508z" />
<glyph unicode="&#xc3;" horiz-adv-x="1624" d="M-41 0v20q127 12 250 151t205 361l207 547q-34 64 -80 107q72 32 167.5 115.5t180.5 187.5q74 -199 106 -277l265 -637q59 -138 94 -216.5t71.5 -148.5t58.5 -100t53.5 -53.5t58 -29t69.5 -7.5v-20h-825v20q145 6 145 115q0 77 -86 281l-45 106h-414q-51 -138 -51 -248 q0 -114 54 -181t149 -73v-20h-633zM436 1540q19 122 76.5 190t142.5 68q37 0 70 -7.5t154 -45.5q144 -45 200 -45q30 0 47.5 14.5t38.5 54.5h23q-22 -112 -76.5 -173.5t-132.5 -61.5q-37 0 -76.5 8.5t-128.5 36.5q-160 51 -207 51q-68 0 -108 -90h-23zM449 547h399l-211 508 z" />
<glyph unicode="&#xc4;" horiz-adv-x="1624" d="M-41 0v20q127 12 250 151t205 361l207 547q-34 64 -80 107q72 32 167.5 115.5t180.5 187.5q74 -199 106 -277l265 -637q59 -138 94 -216.5t71.5 -148.5t58.5 -100t53.5 -53.5t58 -29t69.5 -7.5v-20h-825v20q145 6 145 115q0 77 -86 281l-45 106h-414q-51 -138 -51 -248 q0 -114 54 -181t149 -73v-20h-633zM391 1667q0 73 52.5 125.5t125.5 52.5q76 0 128.5 -52.5t52.5 -129.5q0 -72 -53.5 -124t-125.5 -52q-75 0 -127.5 52.5t-52.5 127.5zM449 547h399l-211 508zM874 1667q0 73 52.5 125.5t126.5 52.5q76 0 128 -52.5t52 -129.5 q0 -72 -53 -124t-125 -52q-75 0 -128 52.5t-53 127.5z" />
<glyph unicode="&#xc5;" horiz-adv-x="1624" d="M-41 0v20q127 12 250 151t205 361l207 547q-34 64 -80 107q72 32 167.5 115.5t180.5 187.5q74 -199 106 -277l265 -637q59 -138 94 -216.5t71.5 -148.5t58.5 -100t53.5 -53.5t58 -29t69.5 -7.5v-20h-825v20q145 6 145 115q0 77 -86 281l-45 106h-414q-51 -138 -51 -248 q0 -114 54 -181t149 -73v-20h-633zM449 547h399l-211 508zM596 1708q0 86 63 146.5t152 60.5q92 0 154.5 -60.5t62.5 -148.5q0 -85 -63.5 -145t-151.5 -60q-91 0 -154 60.5t-63 146.5zM725 1708q0 -92 21 -134t65 -42q46 0 67 41.5t21 132.5q0 93 -21 135.5t-67 42.5 q-44 0 -65 -42t-21 -134z" />
<glyph unicode="&#xc6;" horiz-adv-x="2189" d="M-41 0v20q127 15 243.5 151.5t209.5 375.5l309 799h-150v20h1424l84 -471h-21q-94 220 -250.5 333t-365.5 113h-58v-630q156 11 255.5 92.5t111.5 208.5h21v-631h-21q-34 144 -131.5 225.5t-235.5 81.5v-483q0 -104 25.5 -142t95.5 -38q192 0 381 163q92 80 155 174 t107 220h21l-92 -582h-1317v20q79 6 116 18t62 40q28 31 35.5 79t7.5 193v174h-545q-35 -110 -45 -157t-10 -101q0 -110 54.5 -172.5t158.5 -73.5v-20h-635zM442 549h539v465q0 148 -6 195t-31 79q-42 58 -168 58h-28z" />
<glyph unicode="&#xc7;" horiz-adv-x="1370" d="M47 688q0 145 57.5 275.5t156 224.5t235 149.5t288.5 55.5q123 0 277 -37q83 -19 110 -19q22 0 33 8.5t19 30.5h20l33 -545h-21q-66 210 -190 363q-138 172 -289 172q-148 0 -223.5 -175t-75.5 -515q0 -364 119 -545q40 -60 102 -95.5t129 -35.5q78 0 150 52.5t145 164.5 q99 146 152 348h20l-18 -585h-21q-6 43 -45 43q-27 0 -202 -35q-100 -17 -195 -17q-34 0 -61 2q-5 -23 -23 -61q91 -7 140 -52t49 -120q0 -79 -56.5 -134t-138.5 -55q-54 0 -94.5 25t-40.5 57q0 12 8.5 20.5t19.5 8.5q26 0 46 -35q15 -26 28.5 -35.5t36.5 -9.5q31 0 50.5 21 t19.5 55q0 52 -41 86.5t-103 34.5q-26 0 -51 -4q40 43 75.5 100.5t47.5 99.5q-197 23 -351.5 121.5t-240.5 253t-86 338.5z" />
<glyph unicode="&#xc8;" horiz-adv-x="1415" d="M14 0v20q69 6 101.5 18t52.5 40q25 32 31 79t6 193v664q0 148 -6 195t-31 79q-20 28 -52.5 40t-101.5 18v20h1207l84 -471h-21q-94 220 -250.5 333t-367.5 113h-58v-630q157 11 257 92.5t112 208.5h20v-631h-20q-35 145 -133 226t-236 81v-483q0 -104 25.5 -142t95.5 -38 q194 0 383 163q92 79 155 174t107 220h21l-92 -582h-1289zM393 1739q0 49 34 84t81 35q54 0 90 -34t92 -136q9 -18 58 -84l88 -109l-21 -20l-100 55q-57 33 -154 61q-91 28 -129.5 62t-38.5 86z" />
<glyph unicode="&#xc9;" horiz-adv-x="1415" d="M14 0v20q69 6 101.5 18t52.5 40q25 32 31 79t6 193v664q0 148 -6 195t-31 79q-20 28 -52.5 40t-101.5 18v20h1207l84 -471h-21q-94 220 -250.5 333t-367.5 113h-58v-630q157 11 257 92.5t112 208.5h20v-631h-20q-35 145 -133 226t-236 81v-483q0 -104 25.5 -142t95.5 -38 q194 0 383 163q92 79 155 174t107 220h21l-92 -582h-1289zM582 1495l86 109q34 44 46.5 62.5t41.5 72.5q63 119 153 119q47 0 81 -35t34 -84q0 -53 -39 -86.5t-131 -61.5q-104 -34 -154 -61l-98 -55z" />
<glyph unicode="&#xca;" horiz-adv-x="1415" d="M14 0v20q69 6 101.5 18t52.5 40q25 32 31 79t6 193v664q0 148 -6 195t-31 79q-20 28 -52.5 40t-101.5 18v20h1207l84 -471h-21q-94 220 -250.5 333t-367.5 113h-58v-630q157 11 257 92.5t112 208.5h20v-631h-20q-35 145 -133 226t-236 81v-483q0 -104 25.5 -142t95.5 -38 q194 0 383 163q92 79 155 174t107 220h21l-92 -582h-1289zM334 1532l305 287h139l305 -287l-14 -19l-360 117l-361 -117z" />
<glyph unicode="&#xcb;" horiz-adv-x="1415" d="M14 0v20q69 6 101.5 18t52.5 40q25 32 31 79t6 193v664q0 148 -6 195t-31 79q-20 28 -52.5 40t-101.5 18v20h1207l84 -471h-21q-94 220 -250.5 333t-367.5 113h-58v-630q157 11 257 92.5t112 208.5h20v-631h-20q-35 145 -133 226t-236 81v-483q0 -104 25.5 -142t95.5 -38 q194 0 383 163q92 79 155 174t107 220h21l-92 -582h-1289zM287 1667q0 73 52.5 125.5t125.5 52.5q76 0 128 -52.5t52 -129.5q0 -72 -53 -124t-125 -52q-75 0 -127.5 52.5t-52.5 127.5zM770 1667q0 73 52 125.5t126 52.5q76 0 128 -52.5t52 -129.5q0 -72 -53 -124t-125 -52 q-75 0 -127.5 52.5t-52.5 127.5z" />
<glyph unicode="&#xcc;" horiz-adv-x="813" d="M14 0v20q67 4 100.5 17t53.5 41q23 33 30 82t7 190v666q0 141 -7 190t-30 82q-20 28 -53.5 41t-100.5 17v20h785v-20q-67 -4 -100.5 -17t-53.5 -41q-23 -33 -30 -82t-7 -190v-666q0 -141 7 -190t30 -82q20 -28 53.5 -41t100.5 -17v-20h-785zM92 1739q0 49 34 84t81 35 q54 0 90.5 -34t91.5 -136q12 -24 57 -84l86 -109l-18 -20l-100 55q-41 24 -154 61q-91 28 -129.5 62t-38.5 86z" />
<glyph unicode="&#xcd;" horiz-adv-x="813" d="M14 0v20q67 4 100.5 17t53.5 41q23 33 30 82t7 190v666q0 141 -7 190t-30 82q-20 28 -53.5 41t-100.5 17v20h785v-20q-67 -4 -100.5 -17t-53.5 -41q-23 -33 -30 -82t-7 -190v-666q0 -141 7 -190t30 -82q20 -28 53.5 -41t100.5 -17v-20h-785zM281 1495l86 109 q33 40 45 58.5t43 76.5q63 119 151 119q49 0 83 -34.5t34 -84.5q0 -53 -39 -86.5t-131 -61.5q-109 -37 -154 -61l-98 -55z" />
<glyph unicode="&#xce;" horiz-adv-x="813" d="M14 0v20q67 4 100.5 17t53.5 41q23 33 30 82t7 190v666q0 141 -7 190t-30 82q-20 28 -53.5 41t-100.5 17v20h785v-20q-67 -4 -100.5 -17t-53.5 -41q-23 -33 -30 -82t-7 -190v-666q0 -141 7 -190t30 -82q20 -28 53.5 -41t100.5 -17v-20h-785zM31 1532l307 287h137 l307 -287l-14 -19l-360 117l-361 -117z" />
<glyph unicode="&#xcf;" horiz-adv-x="813" d="M-2 1667q0 73 52 125.5t126 52.5q76 0 128 -52.5t52 -129.5q0 -72 -53 -124t-125 -52q-75 0 -127.5 52.5t-52.5 127.5zM14 0v20q67 4 100.5 17t53.5 41q23 33 30 82t7 190v666q0 141 -7 190t-30 82q-20 28 -53.5 41t-100.5 17v20h785v-20q-67 -4 -100.5 -17t-53.5 -41 q-23 -33 -30 -82t-7 -190v-666q0 -141 7 -190t30 -82q20 -28 53.5 -41t100.5 -17v-20h-785zM455 1667q0 73 52.5 125.5t125.5 52.5q76 0 128 -52.5t52 -129.5q0 -72 -53 -124t-125 -52q-75 0 -127.5 52.5t-52.5 127.5z" />
<glyph unicode="&#xd0;" horiz-adv-x="1558" d="M14 0v20q69 6 100.5 18t53.5 40q25 32 31 79t6 193v361h-191v24h191v279q0 148 -6 195t-31 79q-20 28 -52.5 40t-101.5 18v20h713q377 0 590 -207q95 -92 144.5 -216t49.5 -267q0 -191 -91.5 -346t-252.5 -242.5t-360 -87.5h-793zM608 297q0 -103 5.5 -149t19.5 -70 q13 -25 48 -39t81 -14q172 0 245.5 152.5t73.5 508.5q0 198 -24 323.5t-78 211.5q-43 63 -117 91.5t-198 28.5h-56v-606h240v-24h-240v-414z" />
<glyph unicode="&#xd1;" horiz-adv-x="1646" d="M-41 0v20q122 21 190 84t97.5 183.5t29.5 328.5v371q0 136 -20 192.5t-84 102.5q-87 61 -213 64v20h668l731 -834v308q0 289 -101 417q-34 42 -71 61t-105 28v20h607v-20q-84 -9 -126 -33t-79 -84q-52 -78 -75.5 -191t-23.5 -286v-820l-1081 1233v-583q0 -301 76 -430 q40 -65 89.5 -94t139.5 -38v-20h-649zM449 1540q17 121 74.5 189.5t142.5 68.5q38 0 71 -8t152 -45q148 -45 203 -45q29 0 47 14.5t37 54.5h22q-22 -112 -76.5 -173.5t-132.5 -61.5q-37 0 -75 8.5t-128 36.5q-160 51 -208 51q-70 0 -107 -90h-22z" />
<glyph unicode="&#xd2;" horiz-adv-x="1583" d="M47 684q0 162 66.5 298.5t193.5 236.5q216 174 484 174q272 0 485 -174q260 -208 260 -545q0 -189 -100 -350.5t-271.5 -256t-373.5 -94.5q-274 0 -484 174q-260 208 -260 537zM475 1739q0 50 34 84.5t83 34.5q54 0 89.5 -33.5t92.5 -136.5q16 -33 57 -84l87 -109 l-19 -20l-100 55q-45 24 -154 61q-92 28 -131 61.5t-39 86.5zM492 684q0 -344 69 -522q29 -75 91.5 -118.5t140.5 -43.5q77 0 138.5 43.5t90.5 118.5q70 185 70 514q0 349 -70 528q-31 75 -92 118.5t-139 43.5t-139.5 -43.5t-90.5 -118.5q-69 -175 -69 -520z" />
<glyph unicode="&#xd3;" horiz-adv-x="1583" d="M47 684q0 162 66.5 298.5t193.5 236.5q216 174 484 174q272 0 485 -174q260 -208 260 -545q0 -189 -100 -350.5t-271.5 -256t-373.5 -94.5q-274 0 -484 174q-260 208 -260 537zM492 684q0 -344 69 -522q29 -75 91.5 -118.5t140.5 -43.5q77 0 138.5 43.5t90.5 118.5 q70 185 70 514q0 349 -70 528q-31 75 -92 118.5t-139 43.5t-139.5 -43.5t-90.5 -118.5q-69 -175 -69 -520zM666 1495l86 109q32 42 44.5 61t41.5 74q66 119 153 119q47 0 81 -35t34 -84q0 -52 -38.5 -86t-129.5 -62q-113 -37 -154 -61l-100 -55z" />
<glyph unicode="&#xd4;" horiz-adv-x="1583" d="M47 684q0 162 66.5 298.5t193.5 236.5q216 174 484 174q272 0 485 -174q260 -208 260 -545q0 -189 -100 -350.5t-271.5 -256t-373.5 -94.5q-274 0 -484 174q-260 208 -260 537zM416 1532l307 287h137l307 -287l-16 -19l-360 117l-359 -117zM492 684q0 -344 69 -522 q29 -75 91.5 -118.5t140.5 -43.5q77 0 138.5 43.5t90.5 118.5q70 185 70 514q0 349 -70 528q-31 75 -92 118.5t-139 43.5t-139.5 -43.5t-90.5 -118.5q-69 -175 -69 -520z" />
<glyph unicode="&#xd5;" horiz-adv-x="1583" d="M47 684q0 162 66.5 298.5t193.5 236.5q216 174 484 174q272 0 485 -174q260 -208 260 -545q0 -189 -100 -350.5t-271.5 -256t-373.5 -94.5q-274 0 -484 174q-260 208 -260 537zM416 1540q17 121 75.5 189.5t143.5 68.5q37 0 69 -7.5t152 -45.5q148 -45 203 -45 q30 0 47.5 14.5t38.5 54.5h22q-22 -112 -77.5 -173.5t-133.5 -61.5q-36 0 -74 8.5t-128 36.5q-160 51 -207 51q-69 0 -109 -90h-22zM492 684q0 -344 69 -522q29 -75 91.5 -118.5t140.5 -43.5q77 0 138.5 43.5t90.5 118.5q70 185 70 514q0 349 -70 528q-31 75 -92 118.5 t-139 43.5t-139.5 -43.5t-90.5 -118.5q-69 -175 -69 -520z" />
<glyph unicode="&#xd6;" horiz-adv-x="1583" d="M47 684q0 162 66.5 298.5t193.5 236.5q216 174 484 174q272 0 485 -174q260 -208 260 -545q0 -189 -100 -350.5t-271.5 -256t-373.5 -94.5q-274 0 -484 174q-260 208 -260 537zM369 1667q0 73 52.5 125.5t125.5 52.5q76 0 128 -52.5t52 -129.5q0 -72 -53 -124t-125 -52 q-75 0 -127.5 52.5t-52.5 127.5zM492 684q0 -344 69 -522q29 -75 91.5 -118.5t140.5 -43.5q77 0 138.5 43.5t90.5 118.5q70 185 70 514q0 349 -70 528q-31 75 -92 118.5t-139 43.5t-139.5 -43.5t-90.5 -118.5q-69 -175 -69 -520zM854 1667q0 73 52 125.5t126 52.5 q76 0 128 -52.5t52 -129.5q0 -72 -53 -124t-125 -52q-75 0 -127.5 52.5t-52.5 127.5z" />
<glyph unicode="&#xd7;" horiz-adv-x="1132" d="M88 233l449 449l-449 451l29 28l448 -450l451 450l28 -28l-450 -451l450 -449l-28 -28l-451 448l-448 -448z" />
<glyph unicode="&#xd8;" horiz-adv-x="1509" d="M10 682q0 329 260 537q210 174 484 174q216 0 403 -113l70 96h33l-80 -110q166 -120 242.5 -259.5t76.5 -322.5q0 -329 -260 -537q-210 -174 -487 -174q-115 0 -212 30t-210 99l-74 -102h-35l86 117q-152 116 -224.5 253t-72.5 312zM455 678q0 -174 20 -330l545 746 q-34 141 -97.5 206.5t-166.5 65.5q-78 0 -140.5 -43.5t-91.5 -118.5q-69 -178 -69 -526zM481 311q32 -163 97.5 -237t175.5 -74q78 0 140 43.5t91 118.5q70 185 70 518q0 201 -27 377z" />
<glyph unicode="&#xd9;" horiz-adv-x="1542" d="M0 1346v20h772v-20q-63 -4 -93.5 -17t-49.5 -41q-23 -32 -29 -80t-6 -192v-479q0 -161 9.5 -236.5t37.5 -124.5q35 -61 113.5 -97t175.5 -36q101 0 179 34t122 97q37 52 50 114t13 179v186q0 324 -49 492q-26 87 -65 130t-115 71v20h518v-20q-76 -15 -121.5 -60 t-79.5 -139q-61 -168 -61 -522v-158q0 -162 -34 -250t-122 -149q-136 -95 -368 -95q-293 0 -461 115q-83 55 -114.5 138.5t-31.5 246.5v543q0 143 -6.5 191.5t-29.5 80.5q-20 28 -53.5 41t-100.5 17zM524 1739q0 50 34 84.5t83 34.5q54 0 89 -33.5t91 -136.5q18 -30 58 -84 l88 -109l-21 -20l-98 55q-45 24 -154 61q-92 28 -131 61.5t-39 86.5z" />
<glyph unicode="&#xda;" horiz-adv-x="1542" d="M0 1346v20h772v-20q-63 -4 -93.5 -17t-49.5 -41q-23 -32 -29 -80t-6 -192v-479q0 -161 9.5 -236.5t37.5 -124.5q35 -61 113.5 -97t175.5 -36q101 0 179 34t122 97q37 52 50 114t13 179v186q0 324 -49 492q-26 87 -65 130t-115 71v20h518v-20q-76 -15 -121.5 -60 t-79.5 -139q-61 -168 -61 -522v-158q0 -162 -34 -250t-122 -149q-136 -95 -368 -95q-293 0 -461 115q-83 55 -114.5 138.5t-31.5 246.5v543q0 143 -6.5 191.5t-29.5 80.5q-20 28 -53.5 41t-100.5 17zM713 1495l88 109q7 10 12.5 16.5t11 14.5t8.5 11.5t8.5 12t7 11.5t8 14 t8 14t10 19t12.5 22q63 119 153 119q47 0 81 -35t34 -84q0 -53 -39 -86.5t-131 -61.5q-101 -34 -151 -61l-101 -55z" />
<glyph unicode="&#xdb;" horiz-adv-x="1542" d="M0 1346v20h772v-20q-63 -4 -93.5 -17t-49.5 -41q-23 -32 -29 -80t-6 -192v-479q0 -161 9.5 -236.5t37.5 -124.5q35 -61 113.5 -97t175.5 -36q101 0 179 34t122 97q37 52 50 114t13 179v186q0 324 -49 492q-26 87 -65 130t-115 71v20h518v-20q-76 -15 -121.5 -60 t-79.5 -139q-61 -168 -61 -522v-158q0 -162 -34 -250t-122 -149q-136 -95 -368 -95q-293 0 -461 115q-83 55 -114.5 138.5t-31.5 246.5v543q0 143 -6.5 191.5t-29.5 80.5q-20 28 -53.5 41t-100.5 17zM465 1532l305 287h139l305 -287l-14 -19l-360 117l-361 -117z" />
<glyph unicode="&#xdc;" horiz-adv-x="1542" d="M0 1346v20h772v-20q-63 -4 -93.5 -17t-49.5 -41q-23 -32 -29 -80t-6 -192v-479q0 -161 9.5 -236.5t37.5 -124.5q35 -61 113.5 -97t175.5 -36q101 0 179 34t122 97q37 52 50 114t13 179v186q0 324 -49 492q-26 87 -65 130t-115 71v20h518v-20q-76 -15 -121.5 -60 t-79.5 -139q-61 -168 -61 -522v-158q0 -162 -34 -250t-122 -149q-136 -95 -368 -95q-293 0 -461 115q-83 55 -114.5 138.5t-31.5 246.5v543q0 143 -6.5 191.5t-29.5 80.5q-20 28 -53.5 41t-100.5 17zM418 1667q0 73 52 125.5t126 52.5q76 0 128 -52.5t52 -129.5 q0 -72 -53 -124t-125 -52q-75 0 -127.5 52.5t-52.5 127.5zM901 1667q0 73 52.5 125.5t125.5 52.5q76 0 128.5 -52.5t52.5 -129.5q0 -72 -53.5 -124t-125.5 -52q-75 0 -127.5 52.5t-52.5 127.5z" />
<glyph unicode="&#xdd;" horiz-adv-x="1550" d="M-41 1346v20h795v-20q-54 -6 -82.5 -32t-28.5 -69q0 -68 76 -192l233 -387l70 112q137 223 137 396q0 75 -21 116t-67 56v20h520v-20q-199 -27 -518 -531l-104 -172v-293q0 -141 7 -190t30 -82q22 -28 54.5 -41t98.5 -17v-20h-784v20q67 4 99.5 17t53.5 41q23 33 30 82 t7 190v205l-336 559q-76 126 -132 173.5t-138 58.5zM717 1495l88 109q7 10 12.5 16.5t11 14.5t8.5 11.5t8.5 12t7 11.5t8 14t8 14t10 19t12.5 22q63 119 153 119q47 0 81 -35t34 -84q0 -53 -39 -86.5t-131 -61.5q-101 -34 -151 -61l-101 -55z" />
<glyph unicode="&#xde;" horiz-adv-x="1400" d="M14 0v20q67 4 100.5 17t53.5 41q24 33 30.5 81t6.5 191v664q0 143 -7 192t-30 82q-21 28 -53.5 41t-100.5 17v20h785v-20q-115 -12 -153 -62.5t-38 -191.5h107q301 0 477 -105t176 -285q0 -93 -54 -172t-151 -129q-96 -48 -208.5 -68t-286.5 -20h-60q-1 -95 6 -146.5 t32.5 -85.5t65 -45.5t113.5 -15.5v-20h-811zM608 338h51q155 0 217 82.5t62 288.5q0 192 -63 275t-211 83h-56v-729z" />
<glyph unicode="&#xdf;" horiz-adv-x="1435" d="M-41 0v20q73 3 109 13t59 33q22 22 29.5 61.5t7.5 134.5v789q0 157 31 247.5t106 153.5q109 90 291 90q255 0 448 -110q83 -47 133 -124t50 -155q0 -64 -32.5 -119.5t-86.5 -83.5q-63 -32 -174 -32q-42 0 -137 6q143 -29 240.5 -70t170.5 -104q182 -150 182 -373 q0 -175 -116.5 -289.5t-296.5 -114.5q-214 0 -350 148l16 12q50 -39 79.5 -52t67.5 -13q95 0 150 85.5t55 235.5q0 159 -51 291t-135 190q-46 32 -91.5 45.5t-117.5 14.5v20q72 1 104 9.5t60 31.5q80 65 80 221q0 136 -57.5 220t-151.5 84q-40 0 -105 -23v-1493h-567z" />
<glyph unicode="&#xe0;" horiz-adv-x="1239" d="M55 199q0 87 62 148t221 130q161 68 377 131v107q0 182 -27 231q-34 51 -94 51q-45 0 -82.5 -22t-56.5 -60q-14 -28 -19.5 -55.5t-17.5 -122.5q-12 -97 -70.5 -154t-146.5 -57q-63 0 -103.5 40.5t-40.5 103.5q0 123 176 225q118 67 282.5 111.5t295.5 44.5q120 0 186 -58 q44 -35 62 -86t18 -139v-471q0 -98 15 -129q16 -43 75 -43q29 0 82 27l13 -15q-106 -88 -185 -126t-155 -38q-86 0 -136.5 47.5t-70.5 147.5q-74 -103 -161 -149t-208 -46q-129 0 -210 63t-81 163zM305 1386q0 51 33.5 85t83.5 34q53 0 89 -34t91 -136q6 -10 57 -84l89 -108 l-21 -21l-100 58q-39 22 -152 59q-93 28 -131.5 61t-38.5 86zM473 303q0 -93 30.5 -141.5t88.5 -48.5q57 0 90 41t33 112v318q-139 -44 -190.5 -104t-51.5 -177z" />
<glyph unicode="&#xe1;" horiz-adv-x="1239" d="M55 199q0 87 62 148t221 130q161 68 377 131v107q0 182 -27 231q-34 51 -94 51q-45 0 -82.5 -22t-56.5 -60q-14 -28 -19.5 -55.5t-17.5 -122.5q-12 -97 -70.5 -154t-146.5 -57q-63 0 -103.5 40.5t-40.5 103.5q0 123 176 225q118 67 282.5 111.5t295.5 44.5q120 0 186 -58 q44 -35 62 -86t18 -139v-471q0 -98 15 -129q16 -43 75 -43q29 0 82 27l13 -15q-106 -88 -185 -126t-155 -38q-86 0 -136.5 47.5t-70.5 147.5q-74 -103 -161 -149t-208 -46q-129 0 -210 63t-81 163zM473 303q0 -93 30.5 -141.5t88.5 -48.5q57 0 90 41t33 112v318 q-139 -44 -190.5 -104t-51.5 -177zM494 1143l88 108q31 41 42 59t44 79q63 116 153 116q47 0 81 -35t34 -84q0 -53 -38.5 -86t-131.5 -61q-113 -37 -152 -59l-100 -58z" />
<glyph unicode="&#xe2;" horiz-adv-x="1239" d="M55 199q0 87 62 148t221 130q161 68 377 131v107q0 182 -27 231q-34 51 -94 51q-45 0 -82.5 -22t-56.5 -60q-14 -28 -19.5 -55.5t-17.5 -122.5q-12 -97 -70.5 -154t-146.5 -57q-63 0 -103.5 40.5t-40.5 103.5q0 123 176 225q118 67 282.5 111.5t295.5 44.5q120 0 186 -58 q44 -35 62 -86t18 -139v-471q0 -98 15 -129q16 -43 75 -43q29 0 82 27l13 -15q-106 -88 -185 -126t-155 -38q-86 0 -136.5 47.5t-70.5 147.5q-74 -103 -161 -149t-208 -46q-129 0 -210 63t-81 163zM279 1202l278 262h127l279 -262l-15 -14l-327 106l-328 -106zM473 303 q0 -93 30.5 -141.5t88.5 -48.5q57 0 90 41t33 112v318q-139 -44 -190.5 -104t-51.5 -177z" />
<glyph unicode="&#xe3;" horiz-adv-x="1239" d="M55 199q0 87 62 148t221 130q161 68 377 131v107q0 182 -27 231q-34 51 -94 51q-45 0 -82.5 -22t-56.5 -60q-14 -28 -19.5 -55.5t-17.5 -122.5q-12 -97 -70.5 -154t-146.5 -57q-63 0 -103.5 40.5t-40.5 103.5q0 123 176 225q118 67 282.5 111.5t295.5 44.5q120 0 186 -58 q44 -35 62 -86t18 -139v-471q0 -98 15 -129q16 -43 75 -43q29 0 82 27l13 -15q-106 -88 -185 -126t-155 -38q-86 0 -136.5 47.5t-70.5 147.5q-74 -103 -161 -149t-208 -46q-129 0 -210 63t-81 163zM279 1200q15 120 68 188t130 68q34 0 61 -6.5t142 -44.5q127 -45 184 -45 q28 0 43.5 13.5t34.5 53.5h21q-22 -113 -71.5 -173t-119.5 -60q-34 0 -69 8.5t-117 36.5q-95 31 -129 40t-60 9q-62 0 -98 -88h-20zM473 303q0 -93 30.5 -141.5t88.5 -48.5q57 0 90 41t33 112v318q-139 -44 -190.5 -104t-51.5 -177z" />
<glyph unicode="&#xe4;" horiz-adv-x="1239" d="M55 199q0 87 62 148t221 130q161 68 377 131v107q0 182 -27 231q-34 51 -94 51q-45 0 -82.5 -22t-56.5 -60q-14 -28 -19.5 -55.5t-17.5 -122.5q-12 -97 -70.5 -154t-146.5 -57q-63 0 -103.5 40.5t-40.5 103.5q0 123 176 225q118 67 282.5 111.5t295.5 44.5q120 0 186 -58 q44 -35 62 -86t18 -139v-471q0 -98 15 -129q16 -43 75 -43q29 0 82 27l13 -15q-106 -88 -185 -126t-155 -38q-86 0 -136.5 47.5t-70.5 147.5q-74 -103 -161 -149t-208 -46q-129 0 -210 63t-81 163zM238 1327q0 66 47.5 114t113.5 48q69 0 116.5 -47.5t47.5 -116.5 q0 -66 -48 -114t-114 -48q-67 0 -115 48t-48 116zM473 303q0 -93 30.5 -141.5t88.5 -48.5q57 0 90 41t33 112v318q-139 -44 -190.5 -104t-51.5 -177zM676 1327q0 66 48 114t114 48q69 0 116 -47.5t47 -116.5q0 -66 -47.5 -114t-113.5 -48q-68 0 -116 48.5t-48 115.5z" />
<glyph unicode="&#xe5;" horiz-adv-x="1239" d="M55 199q0 87 62 148t221 130q161 68 377 131v107q0 182 -27 231q-34 51 -94 51q-45 0 -82.5 -22t-56.5 -60q-14 -28 -19.5 -55.5t-17.5 -122.5q-12 -97 -70.5 -154t-146.5 -57q-63 0 -103.5 40.5t-40.5 103.5q0 123 176 225q118 67 282.5 111.5t295.5 44.5q120 0 186 -58 q44 -35 62 -86t18 -139v-471q0 -98 15 -129q16 -43 75 -43q29 0 82 27l13 -15q-106 -88 -185 -126t-155 -38q-86 0 -136.5 47.5t-70.5 147.5q-74 -103 -161 -149t-208 -46q-129 0 -210 63t-81 163zM424 1350q0 77 57.5 131.5t139.5 54.5q83 0 139.5 -55t56.5 -135 q0 -75 -57.5 -130t-138.5 -55q-82 0 -139.5 55.5t-57.5 133.5zM473 303q0 -93 30.5 -141.5t88.5 -48.5q57 0 90 41t33 112v318q-139 -44 -190.5 -104t-51.5 -177zM541 1350q0 -84 19.5 -123t60.5 -39t60 38.5t19 121.5q0 86 -18.5 123.5t-60.5 37.5q-41 0 -60.5 -38 t-19.5 -121z" />
<glyph unicode="&#xe6;" horiz-adv-x="1826" d="M55 195q0 120 147 212t509 199v107q0 162 -27.5 223t-99.5 61q-85 0 -125 -65q-26 -39 -41 -154q-11 -83 -22 -117t-38 -67q-56 -72 -157 -72q-64 0 -104 39.5t-40 102.5q0 70 43.5 124.5t143.5 110.5q126 68 273 110t265 42q73 0 124.5 -18.5t97.5 -61.5 q79 43 140.5 61.5t131.5 18.5q111 0 215.5 -49.5t171.5 -133.5q51 -62 74.5 -122t27.5 -144h-669q0 -181 86.5 -280t244.5 -99q110 0 189.5 41t148.5 133l21 -8q-67 -151 -133 -235q-69 -88 -172 -134.5t-230 -46.5q-119 0 -213 38t-176 118q-196 -87 -313 -121.5 t-217 -34.5q-120 0 -198.5 62.5t-78.5 159.5zM467 242q0 -101 26.5 -147t84.5 -46q65 0 104 49q19 23 24 51t5 103v330q-76 -27 -113 -46.5t-63 -46.5q-68 -68 -68 -247zM1096 627h313q0 187 -18 272q-12 61 -43 93t-76 32q-88 0 -131.5 -97.5t-44.5 -299.5z" />
<glyph unicode="&#xe7;" horiz-adv-x="1110" d="M47 496q0 153 76 280.5t207.5 201t290.5 73.5q180 0 305 -98.5t125 -239.5q0 -78 -48 -130.5t-120 -52.5q-75 0 -123.5 51t-48.5 128q0 40 20 104q17 61 17 88q0 54 -35.5 88.5t-89.5 34.5q-93 0 -157.5 -111t-64.5 -272q0 -184 95.5 -294.5t255.5 -110.5 q89 0 162.5 33.5t144.5 105.5l24 -13q-79 -187 -209 -288t-292 -103q-4 -12 -21 -51q82 -7 126 -47.5t44 -108.5q0 -72 -51 -122t-125 -50q-48 0 -85.5 22.5t-37.5 51.5q0 10 8 18.5t19 8.5q23 0 41 -33q13 -25 25 -33t32 -8q29 0 46.5 19.5t17.5 50.5q0 47 -37 78.5 t-92 31.5q-23 0 -46 -4q81 92 109 176q-163 6 -289 88q-100 66 -159.5 185t-59.5 252z" />
<glyph unicode="&#xe8;" horiz-adv-x="1155" d="M47 498q0 152 74 279t202 200.5t281 73.5q125 0 232 -50.5t176 -142.5q42 -56 63 -111t31 -137h-678q3 -381 342 -381q108 0 185.5 42.5t140.5 136.5l18 -9q-33 -88 -62 -140.5t-73 -106.5q-71 -86 -172 -132.5t-219 -46.5q-151 0 -275.5 69t-195 189.5t-70.5 266.5z M276 1386q0 51 33.5 85t81.5 34q54 0 90.5 -34t91.5 -136q9 -18 58 -84l86 -108l-19 -21l-100 58q-46 24 -154 59q-92 28 -130 61t-38 86zM426 635h315q0 174 -14 248q-13 73 -43.5 107t-83.5 34q-83 0 -128.5 -101t-45.5 -288z" />
<glyph unicode="&#xe9;" horiz-adv-x="1155" d="M47 498q0 152 74 279t202 200.5t281 73.5q125 0 232 -50.5t176 -142.5q42 -56 63 -111t31 -137h-678q3 -381 342 -381q108 0 185.5 42.5t140.5 136.5l18 -9q-33 -88 -62 -140.5t-73 -106.5q-71 -86 -172 -132.5t-219 -46.5q-151 0 -275.5 69t-195 189.5t-70.5 266.5z M426 635h315q0 174 -14 248q-13 73 -43.5 107t-83.5 34q-83 0 -128.5 -101t-45.5 -288zM465 1143l86 108q31 41 42 59t44 79q66 116 154 116q49 0 82.5 -34.5t33.5 -84.5q0 -52 -39 -85.5t-131 -61.5q-115 -38 -153 -59l-101 -58z" />
<glyph unicode="&#xea;" horiz-adv-x="1155" d="M47 498q0 152 74 279t202 200.5t281 73.5q125 0 232 -50.5t176 -142.5q42 -56 63 -111t31 -137h-678q3 -381 342 -381q108 0 185.5 42.5t140.5 136.5l18 -9q-33 -88 -62 -140.5t-73 -106.5q-71 -86 -172 -132.5t-219 -46.5q-151 0 -275.5 69t-195 189.5t-70.5 266.5z M250 1202l278 262h125l279 -262l-14 -14l-326 106l-328 -106zM426 635h315q0 174 -14 248q-13 73 -43.5 107t-83.5 34q-83 0 -128.5 -101t-45.5 -288z" />
<glyph unicode="&#xeb;" horiz-adv-x="1155" d="M47 498q0 152 74 279t202 200.5t281 73.5q125 0 232 -50.5t176 -142.5q42 -56 63 -111t31 -137h-678q3 -381 342 -381q108 0 185.5 42.5t140.5 136.5l18 -9q-33 -88 -62 -140.5t-73 -106.5q-71 -86 -172 -132.5t-219 -46.5q-151 0 -275.5 69t-195 189.5t-70.5 266.5z M207 1327q0 66 48 114t114 48q69 0 116 -47.5t47 -116.5q0 -66 -47.5 -114t-113.5 -48q-67 0 -115.5 48.5t-48.5 115.5zM426 635h315q0 174 -14 248q-13 73 -43.5 107t-83.5 34q-83 0 -128.5 -101t-45.5 -288zM647 1327q0 66 48 114t114 48q69 0 116.5 -47.5t47.5 -116.5 q0 -66 -48 -114t-114 -48q-67 0 -115.5 48.5t-48.5 115.5z" />
<glyph unicode="&#xec;" horiz-adv-x="702" d="M0 893q138 32 294.5 77.5t246.5 80.5v-789q0 -56 1.5 -90t7.5 -63t15 -43.5t27.5 -25.5t40.5 -14.5t57 -5.5v-20h-663v20q36 2 58 5.5t40.5 14t27.5 25t15.5 43.5t8 63.5t1.5 90.5v336q0 93 -8.5 137.5t-32.5 77.5q-22 29 -52.5 42.5t-82.5 16.5zM37 1386q0 49 34 84 t81 35q54 0 90.5 -34t91.5 -136q11 -22 57 -84l86 -108l-18 -21l-101 58q-47 25 -153 59q-92 28 -130 61t-38 86z" />
<glyph unicode="&#xed;" horiz-adv-x="702" d="M0 893q138 32 294.5 77.5t246.5 80.5v-789q0 -56 1.5 -90t7.5 -63t15 -43.5t27.5 -25.5t40.5 -14.5t57 -5.5v-20h-663v20q36 2 58 5.5t40.5 14t27.5 25t15.5 43.5t8 63.5t1.5 90.5v336q0 93 -8.5 137.5t-32.5 77.5q-22 29 -52.5 42.5t-82.5 16.5zM225 1143l86 108 q32 41 44 59.5t44 78.5q63 116 152 116q50 0 83.5 -34t33.5 -85q0 -52 -38 -85t-132 -62q-101 -33 -154 -59l-98 -58z" />
<glyph unicode="&#xee;" horiz-adv-x="702" d="M0 893q138 32 294.5 77.5t246.5 80.5v-789q0 -56 1.5 -90t7.5 -63t15 -43.5t27.5 -25.5t40.5 -14.5t57 -5.5v-20h-663v20q36 2 58 5.5t40.5 14t27.5 25t15.5 43.5t8 63.5t1.5 90.5v336q0 93 -8.5 137.5t-32.5 77.5q-22 29 -52.5 42.5t-82.5 16.5zM10 1202l279 262h125 l278 -262l-12 -14l-328 106l-327 -106z" />
<glyph unicode="&#xef;" horiz-adv-x="702" d="M-18 1327q0 66 47.5 114t113.5 48q69 0 116.5 -47.5t47.5 -116.5q0 -66 -48 -114t-114 -48q-67 0 -115 48t-48 116zM0 893q133 30 292.5 77t248.5 81v-789q0 -56 1.5 -90t7.5 -63t15 -43.5t27.5 -25.5t40.5 -14.5t57 -5.5v-20h-663v20q36 2 58 5.5t40.5 14t27.5 25 t15.5 43.5t8 63.5t1.5 90.5v336q0 93 -8.5 137.5t-32.5 77.5q-22 29 -52.5 42.5t-82.5 16.5zM393 1327q0 66 48 114t114 48q69 0 116.5 -47.5t47.5 -116.5q0 -66 -48 -114t-114 -48q-67 0 -115.5 48.5t-48.5 115.5z" />
<glyph unicode="&#xf0;" horiz-adv-x="1226" d="M47 512q0 149 74.5 273t204 195t284.5 71q20 0 95 -7q-52 158 -119 265l-228 -179l-16 23l229 180q-60 96 -174 215l13 17q135 -73 254 -162l215 170l18 -23l-213 -164q175 -144 305 -327q191 -272 191 -541q0 -152 -74 -277t-203.5 -196.5t-288.5 -71.5q-118 0 -223 42 t-180.5 113.5t-119.5 171.5t-44 212zM442 512q0 -354 58 -446q41 -66 114 -66q82 0 123 84q47 96 47 424q0 359 -57 450q-41 66 -115 66q-82 0 -123 -84q-47 -96 -47 -428z" />
<glyph unicode="&#xf1;" horiz-adv-x="1333" d="M0 893q246 54 541 158v-195q104 108 187.5 151.5t184.5 43.5q69 0 124.5 -22.5t84.5 -63.5q26 -33 36.5 -81.5t10.5 -131.5v-531q-2 -126 19 -160t104 -41v-20h-579v20q65 6 82 50q12 32 12 151v387q0 120 -4.5 164.5t-18.5 71.5q-10 23 -36 37t-54 14q-72 0 -153 -72 v-602q-1 -87 5.5 -125.5t25.5 -54.5t63 -21v-20h-621v20q47 2 73.5 8t46.5 19t28.5 42t12 67.5t3.5 105.5v336q0 94 -8.5 138.5t-32.5 76.5q-22 29 -52 42.5t-81 16.5zM367 1200q15 120 67.5 188t130.5 68q33 0 59.5 -6.5t143.5 -44.5q123 -45 182 -45q28 0 43.5 13.5 t34.5 53.5h21q-20 -112 -70 -172.5t-121 -60.5q-55 0 -184 45q-97 31 -131 40t-58 9q-65 0 -98 -88h-20z" />
<glyph unicode="&#xf2;" horiz-adv-x="1226" d="M47 512q0 149 74.5 273t204.5 195t286 71q214 0 381 -138q187 -156 187 -409q0 -145 -75.5 -267.5t-206 -193t-286.5 -70.5t-286 71t-204.5 195t-74.5 273zM297 1386q0 51 33.5 85t83.5 34q54 0 89 -33.5t91 -136.5q30 -50 59 -84l86 -108l-20 -21l-98 58q-60 32 -154 59 q-92 28 -131 61.5t-39 85.5zM442 512q0 -354 58 -446q41 -66 114 -66q82 0 123 84q47 96 47 424q0 359 -57 450q-41 66 -115 66q-82 0 -123 -84q-47 -96 -47 -428z" />
<glyph unicode="&#xf3;" horiz-adv-x="1226" d="M47 512q0 149 74.5 273t204.5 195t286 71q214 0 381 -138q187 -156 187 -409q0 -145 -75.5 -267.5t-206 -193t-286.5 -70.5t-286 71t-204.5 195t-74.5 273zM442 512q0 -354 58 -446q41 -66 114 -66q82 0 123 84q47 96 47 424q0 359 -57 450q-41 66 -115 66 q-82 0 -123 -84q-47 -96 -47 -428zM485 1143l88 108q31 40 42.5 58t43.5 80q63 116 154 116q47 0 81 -35t34 -84q0 -52 -37.5 -85t-130.5 -62q-113 -36 -154 -59l-100 -58z" />
<glyph unicode="&#xf4;" horiz-adv-x="1226" d="M47 512q0 149 74.5 273t204.5 195t286 71q214 0 381 -138q187 -156 187 -409q0 -145 -75.5 -267.5t-206 -193t-286.5 -70.5t-286 71t-204.5 195t-74.5 273zM272 1202l279 262h125l278 -262l-14 -14l-328 106l-327 -106zM442 512q0 -354 58 -446q41 -66 114 -66 q82 0 123 84q47 96 47 424q0 359 -57 450q-41 66 -115 66q-82 0 -123 -84q-47 -96 -47 -428z" />
<glyph unicode="&#xf5;" horiz-adv-x="1226" d="M47 512q0 149 74.5 273t204.5 195t286 71q214 0 381 -138q187 -156 187 -409q0 -145 -75.5 -267.5t-206 -193t-286.5 -70.5t-286 71t-204.5 195t-74.5 273zM272 1200q15 120 68 188t131 68q33 0 59.5 -6.5t141.5 -44.5q127 -45 184 -45q28 0 43.5 13.5t34.5 53.5h20 q-20 -112 -69.5 -172.5t-120.5 -60.5q-34 0 -69.5 8.5t-114.5 36.5q-97 31 -131 40t-60 9q-63 0 -96 -88h-21zM442 512q0 -354 58 -446q41 -66 114 -66q82 0 123 84q47 96 47 424q0 359 -57 450q-41 66 -115 66q-82 0 -123 -84q-47 -96 -47 -428z" />
<glyph unicode="&#xf6;" horiz-adv-x="1226" d="M47 512q0 149 74.5 273t204.5 195t286 71q214 0 381 -138q187 -156 187 -409q0 -145 -75.5 -267.5t-206 -193t-286.5 -70.5t-286 71t-204.5 195t-74.5 273zM229 1327q0 66 48 114t114 48q69 0 116.5 -47.5t47.5 -116.5q0 -66 -48 -114t-114 -48q-67 0 -115.5 48.5 t-48.5 115.5zM442 512q0 -354 58 -446q41 -66 114 -66q82 0 123 84q47 96 47 424q0 359 -57 450q-41 66 -115 66q-82 0 -123 -84q-47 -96 -47 -428zM670 1327q0 66 47.5 114t113.5 48q69 0 116.5 -47.5t47.5 -116.5q0 -66 -47.5 -114t-113.5 -48q-68 0 -116 48.5t-48 115.5z " />
<glyph unicode="&#xf7;" horiz-adv-x="1132" d="M20 662v40h1092v-40h-1092zM430 272q0 58 40 98t97 40t96 -40t39 -96q0 -57 -39.5 -97t-95.5 -40q-57 0 -97 39.5t-40 95.5zM430 1092q0 58 40 97.5t97 39.5t96 -39.5t39 -95.5q0 -57 -39.5 -97.5t-95.5 -40.5q-57 0 -97 40t-40 96z" />
<glyph unicode="&#xf8;" horiz-adv-x="1226" d="M47 506q0 149 74.5 272.5t204.5 194.5t286 71q160 0 291 -73l86 119h31l-94 -134q135 -94 194.5 -199t59.5 -251q0 -150 -75 -274.5t-205.5 -195.5t-287.5 -71q-93 0 -169.5 23.5t-161.5 77.5l-82 -115h-33l94 131q-213 166 -213 424zM442 524q0 -3 1 -20.5t2.5 -62 t3.5 -101.5l321 444q-15 126 -52 180t-106 54q-82 0 -123 -84q-21 -42 -34 -156t-13 -254zM451 299q10 -166 47.5 -235.5t115.5 -69.5q82 0 123 84q47 92 47 436q0 116 -10 234z" />
<glyph unicode="&#xf9;" horiz-adv-x="1323" d="M8 973v20q77 2 239 20t279 38v-742q0 -95 23 -137q12 -23 39.5 -37t60.5 -14q70 0 148 78v532q0 145 -29.5 190.5t-126.5 51.5v20q77 2 239 20t279 38v-678q0 -129 30 -176t118 -58v-20q-113 -19 -252 -64l-258 -82v193q-88 -79 -135 -111q-124 -82 -254 -82 q-59 0 -114 24.5t-85 63.5q-25 34 -35 81.5t-10 131.5v457q0 145 -29.5 190.5t-126.5 51.5zM346 1386q0 49 34 84t81 35q54 0 90.5 -34t91.5 -136q2 -5 57 -84l88 -108l-20 -21l-100 58q-57 32 -152 59q-92 28 -131 61.5t-39 85.5z" />
<glyph unicode="&#xfa;" horiz-adv-x="1323" d="M8 973v20q77 2 239 20t279 38v-742q0 -95 23 -137q12 -23 39.5 -37t60.5 -14q70 0 148 78v532q0 145 -29.5 190.5t-126.5 51.5v20q77 2 239 20t279 38v-678q0 -129 30 -176t118 -58v-20q-113 -19 -252 -64l-258 -82v193q-88 -79 -135 -111q-124 -82 -254 -82 q-59 0 -114 24.5t-85 63.5q-25 34 -35 81.5t-10 131.5v457q0 145 -29.5 190.5t-126.5 51.5zM535 1143l88 108q31 41 42 59t44 79q63 116 153 116q47 0 81 -35t34 -84q0 -52 -38 -85t-132 -62q-108 -35 -154 -59l-98 -58z" />
<glyph unicode="&#xfb;" horiz-adv-x="1323" d="M8 973v20q77 2 239 20t279 38v-742q0 -95 23 -137q12 -23 39.5 -37t60.5 -14q70 0 148 78v532q0 145 -29.5 190.5t-126.5 51.5v20q77 2 239 20t279 38v-678q0 -129 30 -176t118 -58v-20q-113 -19 -252 -64l-258 -82v193q-88 -79 -135 -111q-124 -82 -254 -82 q-59 0 -114 24.5t-85 63.5q-25 34 -35 81.5t-10 131.5v457q0 145 -29.5 190.5t-126.5 51.5zM319 1202l279 262h125l281 -262l-15 -14l-327 106l-328 -106z" />
<glyph unicode="&#xfc;" horiz-adv-x="1323" d="M8 973v20q77 2 239 20t279 38v-742q0 -95 23 -137q12 -23 39.5 -37t60.5 -14q70 0 148 78v532q0 145 -29.5 190.5t-126.5 51.5v20q77 2 239 20t279 38v-678q0 -129 30 -176t118 -58v-20q-113 -19 -252 -64l-258 -82v193q-88 -79 -135 -111q-124 -82 -254 -82 q-59 0 -114 24.5t-85 63.5q-25 34 -35 81.5t-10 131.5v457q0 145 -29.5 190.5t-126.5 51.5zM276 1327q0 66 48 114t114 48q69 0 116.5 -47.5t47.5 -116.5q0 -66 -48 -114t-114 -48q-68 0 -116 48.5t-48 115.5zM717 1327q0 66 48 114t114 48q69 0 116 -47.5t47 -116.5 q0 -66 -47.5 -114t-113.5 -48q-67 0 -115.5 48.5t-48.5 115.5z" />
<glyph unicode="&#xfd;" horiz-adv-x="1216" d="M-51 -225q0 76 51.5 127t128.5 51q53 0 90 -21.5t80 -76.5q31 -42 52 -57t48 -15q29 0 61.5 22.5t55.5 59.5q28 46 64 117l-410 827q-53 114 -93 151.5t-118 43.5v20h672v-20q-47 -3 -68.5 -24.5t-21.5 -64.5q0 -59 45 -147l190 -387q90 179 118 263t28 173q0 84 -29 126 t-98 61v20h465v-20q-78 -12 -157.5 -104.5t-184.5 -295.5l-363 -729q-78 -157 -167.5 -231t-199.5 -74q-106 0 -172.5 57t-66.5 148zM483 1143l86 108q31 41 42 59t44 79q66 116 154 116q49 0 83 -34.5t34 -84.5q0 -52 -39 -85.5t-131 -61.5q-118 -39 -154 -59l-100 -58z " />
<glyph unicode="&#xfe;" horiz-adv-x="1259" d="M-27 -383q68 4 101 16.5t53 40.5q24 32 30.5 79.5t6.5 193.5v1157q0 93 -8.5 137t-32.5 76q-22 31 -51.5 44.5t-81.5 14.5l-2 23q319 67 538 143v-624q85 70 157.5 101.5t150.5 31.5q167 0 272.5 -135.5t105.5 -352.5q0 -163 -64 -298.5t-175.5 -213.5t-245.5 -78 q-59 0 -104 16.5t-97 57.5v-188q0 -55 2 -89.5t9.5 -63.5t18.5 -43.5t32.5 -25.5t48 -14.5t68.5 -5.5v-20h-732v20zM526 80q43 -43 101 -43q95 0 148.5 121t53.5 336q0 206 -48.5 324t-133.5 118q-46 0 -121 -49v-807z" />
<glyph unicode="&#xff;" horiz-adv-x="1216" d="M-51 -225q0 76 51.5 127t128.5 51q53 0 90 -21.5t80 -76.5q31 -42 52 -57t48 -15q29 0 61.5 22.5t55.5 59.5q28 46 64 117l-410 827q-53 114 -93 151.5t-118 43.5v20h672v-20q-47 -3 -68.5 -24.5t-21.5 -64.5q0 -59 45 -147l190 -387q90 179 118 263t28 173q0 84 -29 126 t-98 61v20h465v-20q-78 -12 -157.5 -104.5t-184.5 -295.5l-363 -729q-78 -157 -167.5 -231t-199.5 -74q-106 0 -172.5 57t-66.5 148zM225 1327q0 66 48 114t114 48q69 0 116.5 -47.5t47.5 -116.5q0 -66 -48 -114t-114 -48q-67 0 -115.5 48.5t-48.5 115.5zM666 1327 q0 66 47.5 114t113.5 48q69 0 116.5 -47.5t47.5 -116.5q0 -66 -48 -114t-114 -48q-67 0 -115 48t-48 116z" />
<glyph unicode="&#x152;" horiz-adv-x="2220" d="M41 674q0 327 242 532q104 89 236 138t267 49q89 0 209 -27h1030l84 -471h-20q-94 220 -251 333t-368 113h-57v-630q157 11 257 92.5t112 208.5h20v-631h-20q-35 145 -133 226t-236 81v-483q0 -104 25.5 -142t95.5 -38q194 0 383 163q92 79 155 174t107 220h21l-93 -582 h-1112q-102 -18 -139 -22.5t-86 -4.5q-143 0 -283.5 59t-246.5 163q-199 193 -199 479zM485 655q0 -196 24.5 -344.5t65.5 -210.5q66 -100 207 -100q152 0 203 129q25 60 25 289v688q0 84 -13.5 127.5t-50.5 75.5q-60 57 -153 57q-152 0 -230 -179.5t-78 -531.5z" />
<glyph unicode="&#x153;" horiz-adv-x="1914" d="M47 510q0 147 75.5 272t205.5 198t284 73q107 0 196 -33t189 -109q96 78 177 110t186 32q115 0 217.5 -47t171.5 -132q44 -57 67.5 -115t38.5 -149h-677q3 -184 89 -281.5t246 -97.5q116 0 198.5 43.5t143.5 137.5l19 -9q-45 -113 -79.5 -171.5t-84.5 -108.5 q-147 -150 -373 -150q-203 0 -356 127q-90 -66 -175.5 -96.5t-184.5 -30.5q-116 0 -222 43t-183.5 115t-123 171t-45.5 208zM442 518q0 -202 16 -312.5t52.5 -158t103.5 -47.5q65 0 101 48.5t52.5 157.5t16.5 302q0 202 -16 312t-53.5 158t-106.5 48q-92 0 -129 -112.5 t-37 -395.5zM1180 635h313q0 208 -33.5 299.5t-107.5 91.5q-63 0 -101 -43.5t-55 -134.5q-16 -81 -16 -213z" />
<glyph unicode="&#x178;" horiz-adv-x="1550" d="M-41 1346v20h795v-20q-54 -6 -82.5 -32t-28.5 -69q0 -68 76 -192l233 -387l70 112q137 223 137 396q0 75 -21 116t-67 56v20h520v-20q-199 -27 -518 -531l-104 -172v-293q0 -141 7 -190t30 -82q22 -28 54.5 -41t98.5 -17v-20h-784v20q67 4 99.5 17t53.5 41q23 33 30 82 t7 190v205l-336 559q-76 126 -132 173.5t-138 58.5zM422 1667q0 73 52 125.5t126 52.5q76 0 128 -52.5t52 -129.5q0 -72 -53 -124t-125 -52q-75 0 -127.5 52.5t-52.5 127.5zM905 1667q0 73 52.5 125.5t125.5 52.5q76 0 128.5 -52.5t52.5 -129.5q0 -72 -53.5 -124t-125.5 -52 q-75 0 -127.5 52.5t-52.5 127.5z" />
<glyph unicode="&#x2c6;" horiz-adv-x="1024" d="M170 1202l279 262h124l279 -262l-12 -14l-328 106l-328 -106z" />
<glyph unicode="&#x2dc;" horiz-adv-x="1024" d="M170 1200q15 119 68.5 187.5t130.5 68.5q33 0 58 -6t144 -45q127 -45 183 -45q28 0 44 14t33 53h21q-20 -112 -69.5 -172.5t-120.5 -60.5q-56 0 -185 45q-149 49 -188 49q-66 0 -99 -88h-20z" />
<glyph unicode="&#x2000;" horiz-adv-x="957" />
<glyph unicode="&#x2001;" horiz-adv-x="1915" />
<glyph unicode="&#x2002;" horiz-adv-x="957" />
<glyph unicode="&#x2003;" horiz-adv-x="1915" />
<glyph unicode="&#x2004;" horiz-adv-x="638" />
<glyph unicode="&#x2005;" horiz-adv-x="478" />
<glyph unicode="&#x2006;" horiz-adv-x="319" />
<glyph unicode="&#x2007;" horiz-adv-x="319" />
<glyph unicode="&#x2008;" horiz-adv-x="239" />
<glyph unicode="&#x2009;" horiz-adv-x="383" />
<glyph unicode="&#x200a;" horiz-adv-x="106" />
<glyph unicode="&#x2010;" horiz-adv-x="536" d="M0 440v158h537v-158h-537z" />
<glyph unicode="&#x2011;" horiz-adv-x="536" d="M0 440v158h537v-158h-537z" />
<glyph unicode="&#x2012;" horiz-adv-x="536" d="M0 440v158h537v-158h-537z" />
<glyph unicode="&#x2013;" horiz-adv-x="1439" d="M82 440v158h1276v-158h-1276z" />
<glyph unicode="&#x2014;" horiz-adv-x="1611" d="M0 440v158h1612v-158h-1612z" />
<glyph unicode="&#x2018;" horiz-adv-x="464" d="M41 1116q0 100 53.5 215.5t143.5 210.5l18 -10q-51 -68 -51 -146q0 -49 19.5 -78t70.5 -57q74 -38 101.5 -75.5t27.5 -98.5q0 -78 -53.5 -132t-130.5 -54q-85 0 -142 65t-57 160z" />
<glyph unicode="&#x2019;" horiz-adv-x="464" d="M41 1356q0 78 53 132t131 54q85 0 142 -65t57 -160q0 -100 -53 -214.5t-144 -211.5l-16 10q51 71 51 148q0 49 -19.5 78t-70.5 55q-75 40 -103 77t-28 97z" />
<glyph unicode="&#x201a;" horiz-adv-x="464" d="M41 156q0 78 53.5 132t130.5 54q85 0 142 -65t57 -160q0 -100 -53.5 -215.5t-143.5 -210.5l-16 10q51 68 51 145q0 49 -19.5 78.5t-70.5 57.5q-75 38 -103 75.5t-28 98.5z" />
<glyph unicode="&#x201c;" horiz-adv-x="890" d="M41 1116q0 100 53.5 215.5t143.5 210.5l18 -10q-51 -68 -51 -146q0 -49 19.5 -78t70.5 -57q74 -38 101.5 -75.5t27.5 -98.5q0 -78 -53.5 -132t-130.5 -54q-85 0 -142 65t-57 160zM465 1116q0 100 53.5 215.5t143.5 210.5l18 -10q-51 -68 -51 -146q0 -49 19.5 -78 t70.5 -57q75 -38 103 -75.5t28 -98.5q0 -78 -53.5 -132t-130.5 -54q-86 0 -143.5 64.5t-57.5 160.5z" />
<glyph unicode="&#x201d;" horiz-adv-x="890" d="M41 1356q0 78 53 132t131 54q85 0 142 -65t57 -160q0 -100 -53 -214.5t-144 -211.5l-16 10q51 71 51 148q0 49 -19.5 78t-70.5 55q-75 40 -103 77t-28 97zM465 1356q0 78 53.5 132t130.5 54q86 0 143.5 -64.5t57.5 -160.5q0 -100 -53 -214.5t-144 -211.5l-18 10 q51 71 51 148q0 49 -19.5 78t-70.5 55q-75 40 -103 77t-28 97z" />
<glyph unicode="&#x201e;" horiz-adv-x="890" d="M41 156q0 78 53.5 132t130.5 54q85 0 142 -65t57 -160q0 -100 -53.5 -215.5t-143.5 -210.5l-16 10q51 68 51 145q0 49 -19.5 78.5t-70.5 57.5q-75 38 -103 75.5t-28 98.5zM465 156q0 78 53.5 132t130.5 54q86 0 143.5 -64.5t57.5 -160.5q0 -100 -53.5 -215.5 t-143.5 -210.5l-18 10q51 68 51 145q0 49 -19.5 78.5t-70.5 57.5q-75 38 -103 75.5t-28 98.5z" />
<glyph unicode="&#x2022;" horiz-adv-x="1366" d="M401 692q0 120 83.5 202.5t205.5 82.5q114 0 196.5 -83.5t82.5 -199.5q0 -118 -83 -201t-200 -83t-201 82.5t-84 199.5z" />
<glyph unicode="&#x2026;" horiz-adv-x="1816" d="M41 184q0 82 57.5 139.5t139.5 57.5q84 0 141 -58t57 -143q0 -79 -58 -136.5t-138 -57.5q-83 0 -141 57.5t-58 140.5zM711 184q0 82 57 139.5t139 57.5q85 0 142 -58t57 -143q0 -79 -58.5 -136.5t-138.5 -57.5q-83 0 -140.5 57.5t-57.5 140.5zM1378 184q0 82 57.5 139.5 t139.5 57.5q85 0 142 -58t57 -143q0 -79 -58.5 -136.5t-138.5 -57.5q-83 0 -141 57.5t-58 140.5z" />
<glyph unicode="&#x202f;" horiz-adv-x="383" />
<glyph unicode="&#x2039;" horiz-adv-x="378" d="M0 518l330 320l8 -21l-143 -299l143 -297l-8 -20z" />
<glyph unicode="&#x203a;" horiz-adv-x="378" d="M41 221l143 297l-143 299l8 21l330 -320l-330 -317z" />
<glyph unicode="&#x205f;" horiz-adv-x="478" />
<glyph unicode="&#x20ac;" d="M10 604l19 31h57q-2 23 -2 53q0 28 2 51h-76l19 31h59q13 132 68.5 248t140.5 198t198 129.5t238 47.5q94 0 232 -31q71 -16 96 -16q17 0 26 6.5t15 25.5h18l27 -450h-21q-35 104 -98 202q-72 112 -145 174t-133 62q-54 0 -102.5 -42.5t-76.5 -111.5q-32 -86 -47.5 -185 t-21.5 -257h534l-18 -31h-516q-2 -27 -2 -65q0 -27 2 -39h452l-16 -31h-436q8 -249 57 -381q38 -101 98 -161t123 -60q91 0 193 138.5t155 332.5h21l-16 -489h-17q-3 34 -37 34q-21 0 -127 -20q-119 -25 -215 -25q-167 0 -309 81t-232 225.5t-108 324.5h-78z" />
<glyph unicode="&#x2122;" horiz-adv-x="2217" d="M20 1106l39 305q32 -31 62.5 -38t130.5 -7h428q86 0 117.5 8t62.5 37l37 -305h-27q-29 80 -111.5 150t-164.5 83v-579q0 -82 4 -110t18 -46q15 -17 37 -23.5t76 -9.5v-24h-536v24q53 3 75 9.5t37 23.5q14 18 18.5 46t4.5 110v577q-80 -12 -163.5 -80.5t-117.5 -150.5h-27 zM913 547v24q114 19 155.5 91.5t41.5 255.5v253q0 73 -8 99t-35 43q-36 23 -125 28v25h444l205 -494l205 494h385v-25q-31 -2 -47.5 -4.5t-32 -11t-22 -18t-11 -33t-5.5 -49t-1 -72.5v-393q0 -47 1 -72.5t5.5 -49t11 -33.5t21.5 -18.5t32 -11t48 -4.5v-24h-502v24 q31 2 47 4.5t31.5 11t21.5 18t10.5 33t5.5 49.5t1 73v524l-326 -790l-327 774v-371q0 -173 45 -250q23 -37 54 -53.5t89 -22.5v-24h-418z" />
<glyph unicode="&#xe000;" horiz-adv-x="1024" d="M0 0v1024h1024v-1024h-1024z" />
</font>
</defs>
</svg>
